<svg xmlns="http://www.w3.org/2000/svg" viewBox="0 0 988.59 335.72"><defs><style>.cls-1{fill:#ce9138;}.cls-2{fill:#676c72;}.cls-3{fill:#208754;}</style></defs><title>Asset 1</title><g id="Layer_2" data-name="Layer 2"><g id="Layer_1-2" data-name="Layer 1"><path class="cls-1" d="M381.13,176.3V85.67h54.26V98.29H394.76v27.38h35.51v12.75H394.76V176.3Z"/><path class="cls-1" d="M436.64,150.68a27,27,0,0,1,2.19-10.82,28.74,28.74,0,0,1,14.63-14.94A25.15,25.15,0,0,1,464,122.67a23.75,23.75,0,0,1,6.88.94,23,23,0,0,1,5.37,2.31,16.92,16.92,0,0,1,3.63,2.88,10.46,10.46,0,0,1,1.87,2.62l.5-7.37h10.26V176.3H481.77v-6.62a13.48,13.48,0,0,1-2,2.37,15.06,15.06,0,0,1-3.56,2.57,26.34,26.34,0,0,1-5.19,2.06,24.71,24.71,0,0,1-6.87.87,27.79,27.79,0,0,1-11.07-2.18,26.79,26.79,0,0,1-14.37-14.44A26,26,0,0,1,436.64,150.68Zm10.75-.63a17.14,17.14,0,0,0,1.32,6.75,16.17,16.17,0,0,0,8.94,8.94,17.45,17.45,0,0,0,6.87,1.31,18,18,0,0,0,6.94-1.31,16.64,16.64,0,0,0,5.5-3.63,16.1,16.1,0,0,0,3.56-5.37,18.53,18.53,0,0,0,0-13.38,15.47,15.47,0,0,0-3.56-5.31,17.11,17.11,0,0,0-5.5-3.56,18,18,0,0,0-6.94-1.32,17.46,17.46,0,0,0-6.87,1.32,16.46,16.46,0,0,0-5.38,3.56,16.8,16.8,0,0,0-4.88,12Z"/><path class="cls-1" d="M536.91,128.67l-5.63,7.5a9.11,9.11,0,0,0-.88-.62,11.74,11.74,0,0,0-1.93-1,24.33,24.33,0,0,0-2.75-.94,11.92,11.92,0,0,0-3.19-.44,9.62,9.62,0,0,0-4.19,1,3.79,3.79,0,0,0-2.06,3.75A4.93,4.93,0,0,0,518,141.8a17.61,17.61,0,0,0,4.18,2.69q2.51,1.19,5.44,2.44A27.52,27.52,0,0,1,533,150a16.09,16.09,0,0,1,4.19,4.5,12.64,12.64,0,0,1,1.69,6.81,15.27,15.27,0,0,1-4.82,11.57q-4.82,4.56-13.19,4.56a27.88,27.88,0,0,1-9.56-1.69,17.85,17.85,0,0,1-7.56-4.94,23.72,23.72,0,0,0,1.93-2.25c.71-.91,1.42-1.79,2.13-2.62l1.75-2.07q.69-.81.81-.81c0,.09.31.34.94.75a16.56,16.56,0,0,0,2.44,1.31,26.54,26.54,0,0,0,3.37,1.26,13.16,13.16,0,0,0,3.75.56,8.68,8.68,0,0,0,5.13-1.5,4.66,4.66,0,0,0,2.12-4,4.3,4.3,0,0,0-1.68-3.57,21.14,21.14,0,0,0-4.19-2.43q-2.5-1.12-5.5-2.32a23.38,23.38,0,0,1-5.5-3.06,16,16,0,0,1-4.19-4.69,14,14,0,0,1-1.69-7.31,14.83,14.83,0,0,1,1.56-7.13,14.31,14.31,0,0,1,4-4.69,16.23,16.23,0,0,1,5.44-2.62,22.07,22.07,0,0,1,5.75-.81,22.72,22.72,0,0,1,7.75,1.5A18.92,18.92,0,0,1,536.91,128.67Z"/><path class="cls-1" d="M555,101h10.63v23.13h14v9.5h-14V176.3H555V133.67h-9.37v-9.5H555Z"/><path class="cls-1" d="M689.93,176.3H677.17c-.66-.83-1.42-1.7-2.25-2.62-.67-.83-1.48-1.81-2.44-2.94s-2-2.39-3.18-3.81a29.29,29.29,0,0,1-10.44,7.69,34.88,34.88,0,0,1-14.57,2.93,34.23,34.23,0,0,1-11.94-2,27.72,27.72,0,0,1-9.37-5.62,25.56,25.56,0,0,1-6.13-8.57,26.34,26.34,0,0,1-2.19-10.81,26.84,26.84,0,0,1,1.63-9.38,26.3,26.3,0,0,1,4.5-7.81,30.06,30.06,0,0,1,6.75-5.94,30.4,30.4,0,0,1,8.5-3.75c-1.17-1.75-2.21-3.39-3.12-4.94s-1.71-2.89-2.38-4.06a78.79,78.79,0,0,1-3.25-7.31,20.3,20.3,0,0,1-1.25-7.19,16.94,16.94,0,0,1,6.31-13.5A21.53,21.53,0,0,1,639.23,83a28.51,28.51,0,0,1,8.31-1.44,30,30,0,0,1,10.88,1.38,30.76,30.76,0,0,1,7.75,3.62l-2.94,4.13-2,2.81a8.61,8.61,0,0,0-.93,1.44,16.37,16.37,0,0,0-3.38-1.82A16.59,16.59,0,0,0,652.29,92,18.47,18.47,0,0,0,647,92a14.45,14.45,0,0,0-4.75,1.5,9.32,9.32,0,0,0-3.44,3.13,8.72,8.72,0,0,0-1.31,4.87,13.84,13.84,0,0,0,1.25,6,22.39,22.39,0,0,0,1.75,3.25l27.26,36.26,9.5-24.38h11.37l-13.5,34.26Zm-47.14-43.13a18.66,18.66,0,0,0-6.5,1.44,19,19,0,0,0-5.56,3.56,17,17,0,0,0-3.88,5.32,15,15,0,0,0-1.43,6.44,15.55,15.55,0,0,0,6.12,13,18.28,18.28,0,0,0,6.31,3.12,26.43,26.43,0,0,0,7.19,1,21.92,21.92,0,0,0,5.13-.62,28.27,28.27,0,0,0,5-1.69,23.16,23.16,0,0,0,4.38-2.56,15.38,15.38,0,0,0,3.25-3.25q-4.75-6-10-12.69T642.79,133.17Z"/><path class="cls-1" d="M732.43,176.3V85.67h13.63v38.5h45.38V85.67h13.75v30.19q0,7.44-.06,15.12c0,5.13-.06,10.17-.06,15.13V176.3H791.44V137.17H746.06V176.3Z"/><path class="cls-1" d="M817.94,150.68a27,27,0,0,1,2.19-10.82,28.74,28.74,0,0,1,14.63-14.94,25.15,25.15,0,0,1,10.56-2.25,23.75,23.75,0,0,1,6.88.94,23,23,0,0,1,5.37,2.31,16.92,16.92,0,0,1,3.63,2.88,10.46,10.46,0,0,1,1.87,2.62l.5-7.37h10.26V176.3H863.07v-6.62a13.48,13.48,0,0,1-2,2.37,15.06,15.06,0,0,1-3.56,2.57,26.34,26.34,0,0,1-5.19,2.06,24.71,24.71,0,0,1-6.87.87,27.79,27.79,0,0,1-11.07-2.18A26.79,26.79,0,0,1,820,160.93,26,26,0,0,1,817.94,150.68Zm10.75-.63A17.14,17.14,0,0,0,830,156.8a16.17,16.17,0,0,0,8.94,8.94,17.45,17.45,0,0,0,6.87,1.31,18,18,0,0,0,6.94-1.31,16.53,16.53,0,0,0,5.5-3.63,16.1,16.1,0,0,0,3.56-5.37,18.53,18.53,0,0,0,0-13.38,15.47,15.47,0,0,0-3.56-5.31,17,17,0,0,0-5.5-3.56,18,18,0,0,0-6.94-1.32,17.46,17.46,0,0,0-6.87,1.32,16.46,16.46,0,0,0-5.38,3.56,16.8,16.8,0,0,0-4.88,12Z"/><path class="cls-1" d="M924.08,163.43c1.17,1.41,2.27,2.77,3.32,4.06s2.1,2.65,3.18,4.06a28.75,28.75,0,0,1-7.87,4.38,28.27,28.27,0,0,1-20.32-.56,28,28,0,0,1-14.75-14.69,26.89,26.89,0,0,1,0-21.26,27.62,27.62,0,0,1,5.94-8.69,28.84,28.84,0,0,1,8.81-5.87,27,27,0,0,1,10.82-2.19,27.74,27.74,0,0,1,9.68,1.63,30.8,30.8,0,0,1,8.07,4.37l-6.88,8.13a15.5,15.5,0,0,0-4.87-2.69,18.68,18.68,0,0,0-6-.94,17.51,17.51,0,0,0-6.88,1.32,17.27,17.27,0,0,0-5.44,3.56,15.47,15.47,0,0,0-3.56,5.31,18.53,18.53,0,0,0,0,13.38,16.1,16.1,0,0,0,3.56,5.37,16.79,16.79,0,0,0,5.44,3.63,17.5,17.5,0,0,0,6.88,1.31,18.41,18.41,0,0,0,6-.94A15.48,15.48,0,0,0,924.08,163.43Z"/><path class="cls-1" d="M978.46,122.67l6.38,6.38q-4.76,4.38-9.06,8.5l-9.07,8.63q5.63,7.5,11,15.06t10.88,15.06H976.34q-4.26-5.87-8.57-11.56t-8.56-11.56L952,159.8v16.5H941.33V79.16H952V147.3q7-6.37,13.38-12.31T978.46,122.67Z"/><path class="cls-2" d="M393.57,247.72a5.5,5.5,0,0,0-2-4.48c-1.32-1.1-3.75-2.14-7.27-3.13a25.43,25.43,0,0,1-7.71-3.24,7.85,7.85,0,0,1-.25-12.84,13.2,13.2,0,0,1,8.22-2.44,13.49,13.49,0,0,1,6.06,1.31,9.84,9.84,0,0,1,4.15,3.64,9.54,9.54,0,0,1,1.48,5.22h-2.9a7.16,7.16,0,0,0-2.39-5.62,9.29,9.29,0,0,0-6.4-2.12,10.11,10.11,0,0,0-6.22,1.74,5.46,5.46,0,0,0-2.31,4.56,5.13,5.13,0,0,0,2.08,4.23,19,19,0,0,0,6.66,2.89,31.32,31.32,0,0,1,6.94,2.6,9.81,9.81,0,0,1,3.55,3.22,8,8,0,0,1,1.2,4.41,7.68,7.68,0,0,1-3.22,6.45,13.67,13.67,0,0,1-8.47,2.43,16.53,16.53,0,0,1-6.6-1.28,10.06,10.06,0,0,1-4.56-3.6,9.26,9.26,0,0,1-1.56-5.31h2.88a6.77,6.77,0,0,0,2.69,5.68,11.34,11.34,0,0,0,7.15,2.08,10.58,10.58,0,0,0,6.38-1.75A5.47,5.47,0,0,0,393.57,247.72Z"/><path class="cls-2" d="M411.9,256.55a11.1,11.1,0,0,1-5.84-1.58,10.85,10.85,0,0,1-4.05-4.43,13.79,13.79,0,0,1-1.45-6.37v-1a14.94,14.94,0,0,1,1.41-6.57,11.35,11.35,0,0,1,3.94-4.59,9.75,9.75,0,0,1,5.47-1.67,9.16,9.16,0,0,1,7.31,3.14q2.7,3.15,2.7,8.59v1.57H403.34v.54a10.57,10.57,0,0,0,2.47,7.16,7.83,7.83,0,0,0,6.2,2.86,9.15,9.15,0,0,0,4-.81,8.76,8.76,0,0,0,3.12-2.62l1.76,1.33A10.19,10.19,0,0,1,411.9,256.55Zm-.52-23.84a7,7,0,0,0-5.32,2.32,10.73,10.73,0,0,0-2.63,6.21H418.6v-.3a9.25,9.25,0,0,0-2.08-5.94A6.46,6.46,0,0,0,411.38,232.71Z"/><path class="cls-2" d="M436.28,254.19a7.41,7.41,0,0,0,4.89-1.64,5.8,5.8,0,0,0,2.14-4.27H446a7.93,7.93,0,0,1-1.45,4.22,9.13,9.13,0,0,1-3.54,3,10.61,10.61,0,0,1-4.73,1.07,9.76,9.76,0,0,1-7.89-3.46q-2.91-3.45-2.91-9.3V243a15.66,15.66,0,0,1,1.31-6.61,10.1,10.1,0,0,1,3.75-4.45,10.38,10.38,0,0,1,5.71-1.56,9.75,9.75,0,0,1,6.86,2.48,9,9,0,0,1,2.89,6.52h-2.69a6.78,6.78,0,0,0-7.06-6.62,7,7,0,0,0-5.88,2.74c-1.39,1.82-2.09,4.38-2.09,7.66v.82q0,4.84,2.09,7.55A7,7,0,0,0,436.28,254.19Z"/><path class="cls-2" d="M450.14,243.07a14.94,14.94,0,0,1,1.41-6.57,10.61,10.61,0,0,1,9.86-6.17,10.41,10.41,0,0,1,8.18,3.54,13.69,13.69,0,0,1,3.13,9.39v.58a14.87,14.87,0,0,1-1.42,6.6,10.55,10.55,0,0,1-4,4.53,11,11,0,0,1-5.87,1.58,10.42,10.42,0,0,1-8.17-3.54,13.64,13.64,0,0,1-3.14-9.38Zm2.8.77a11.5,11.5,0,0,0,2.35,7.44,8,8,0,0,0,12.3,0,11.88,11.88,0,0,0,2.35-7.67v-.54a12.86,12.86,0,0,0-1.08-5.31,8.64,8.64,0,0,0-3-3.73,7.74,7.74,0,0,0-4.44-1.32,7.45,7.45,0,0,0-6.1,2.94,11.82,11.82,0,0,0-2.37,7.68Z"/><path class="cls-2" d="M481.25,230.8l.1,4.32a9.92,9.92,0,0,1,3.55-3.56,9.21,9.21,0,0,1,4.7-1.23q4.06,0,6,2.29t2,6.87v16.6h-2.78V239.47a7.78,7.78,0,0,0-1.44-5.05,5.61,5.61,0,0,0-4.52-1.66,7.07,7.07,0,0,0-4.59,1.62,9.53,9.53,0,0,0-3,4.39v17.32h-2.78V230.8Z"/><path class="cls-2" d="M503.86,243.21q0-5.9,2.63-9.39a8.45,8.45,0,0,1,7.14-3.49,8.79,8.79,0,0,1,7.8,4V220.18h2.79v35.91H521.6l-.12-3.37a9,9,0,0,1-7.9,3.83,8.46,8.46,0,0,1-7.05-3.51q-2.67-3.53-2.67-9.5Zm2.83.49a13.12,13.12,0,0,0,1.94,7.63,6.27,6.27,0,0,0,5.47,2.79,7.52,7.52,0,0,0,7.33-4.55V237.69a7.46,7.46,0,0,0-7.29-4.93,6.34,6.34,0,0,0-5.49,2.77Q506.68,238.31,506.69,243.7Z"/><path class="cls-2" d="M562.86,239.77H546.94v13.89h18.3v2.43H544.06v-34h21.07v2.44H546.94v12.85h15.92Z"/><path class="cls-2" d="M569.17,243.21q0-5.9,2.63-9.39a8.45,8.45,0,0,1,7.14-3.49,8.81,8.81,0,0,1,7.81,4V220.18h2.78v35.91h-2.62l-.12-3.37a9,9,0,0,1-7.9,3.83,8.43,8.43,0,0,1-7-3.51q-2.69-3.53-2.68-9.5Zm2.83.49a13.19,13.19,0,0,0,1.94,7.63,6.28,6.28,0,0,0,5.47,2.79,7.54,7.54,0,0,0,7.34-4.55V237.69q-2.18-4.94-7.29-4.93a6.35,6.35,0,0,0-5.5,2.77Q572,238.31,572,243.7Z"/><path class="cls-2" d="M596.82,223.49a1.88,1.88,0,0,1,.52-1.33,1.81,1.81,0,0,1,1.4-.55,1.88,1.88,0,0,1,1.42.55,2,2,0,0,1,0,2.66,2,2,0,0,1-1.42.53,1.8,1.8,0,0,1-1.92-1.86Zm3.3,32.6h-2.8V230.8h2.8Z"/><path class="cls-2" d="M612.16,224.32v6.48h5.24v2.29h-5.24V250a5.23,5.23,0,0,0,.76,3.13,2.94,2.94,0,0,0,2.54,1,16.49,16.49,0,0,0,2.26-.23l.12,2.27a9.21,9.21,0,0,1-3,.39,5,5,0,0,1-4.19-1.67,7.87,7.87,0,0,1-1.31-4.92V233.09H604.7V230.8h4.65v-6.48Z"/><path class="cls-2" d="M623.12,223.49a1.88,1.88,0,0,1,.52-1.33,1.81,1.81,0,0,1,1.4-.55,1.88,1.88,0,0,1,1.42.55,2,2,0,0,1,0,2.66,2,2,0,0,1-1.42.53,1.8,1.8,0,0,1-1.92-1.86Zm3.3,32.6h-2.8V230.8h2.8Z"/><path class="cls-2" d="M632.57,243.07A14.94,14.94,0,0,1,634,236.5a10.61,10.61,0,0,1,9.86-6.17,10.41,10.41,0,0,1,8.18,3.54,13.69,13.69,0,0,1,3.13,9.39v.58a14.87,14.87,0,0,1-1.42,6.6,10.55,10.55,0,0,1-4,4.53,11,11,0,0,1-5.87,1.58,10.42,10.42,0,0,1-8.17-3.54,13.64,13.64,0,0,1-3.14-9.38Zm2.8.77a11.5,11.5,0,0,0,2.35,7.44,8,8,0,0,0,12.3,0,11.88,11.88,0,0,0,2.35-7.67v-.54a12.86,12.86,0,0,0-1.08-5.31,8.64,8.64,0,0,0-3-3.73,7.74,7.74,0,0,0-4.44-1.32,7.48,7.48,0,0,0-6.11,2.94,11.88,11.88,0,0,0-2.36,7.68Z"/><path class="cls-2" d="M663.68,230.8l.1,4.32a9.92,9.92,0,0,1,3.55-3.56,9.21,9.21,0,0,1,4.7-1.23q4.07,0,6.05,2.29t2,6.87v16.6h-2.78V239.47a7.78,7.78,0,0,0-1.44-5.05,5.61,5.61,0,0,0-4.52-1.66,7.07,7.07,0,0,0-4.59,1.62,9.53,9.53,0,0,0-3,4.39v17.32H661V230.8Z"/><path class="cls-3" d="M335.14,166.26l-41.69-50.4L287.29,50.7A2.52,2.52,0,0,0,285,48.43l-65.14-6.16L169.46.58a2.51,2.51,0,0,0-3.21,0l-50.41,41.7L50.72,48.43a2.52,2.52,0,0,0-2.26,2.27l-6.18,65.15L.59,166.26a2.47,2.47,0,0,0,0,3.21l41.69,50.42L48.45,285a2.52,2.52,0,0,0,2.25,2.28l65.14,6.16,50.41,41.69a2.51,2.51,0,0,0,3.21,0l50.42-41.69L285,287.29a2.53,2.53,0,0,0,2.28-2.28l6.16-65.14,41.69-50.4A2.52,2.52,0,0,0,335.14,166.26Zm-44.56-27L265.53,164.3l-26.08-26.08v-36.9h35.43l13.69,16.55ZM262,167.87l-22.51,22.51v-45ZM282.47,53.25l5.25,55.69L278,97.17a2.48,2.48,0,0,0-1.94-.89H239.45V59.66a2.48,2.48,0,0,0-.92-1.94L226.78,48ZM234.4,60.84V96.28H197.5L171.42,70.2l25.07-25.07,21.36,2ZM145.34,96.28l22.52-22.52,22.51,22.52Zm38.55,35.78-25.95,71.6h-8.65l25.94-71.6Zm6.49,107.4-19.83,19.82L167.86,262l-2.69-2.69-19.83-19.82Zm-1.21-48.93V179.7l28-10.5-28-10.28V148.09l39.13,16.85v8.74Zm32.38,24.88,12.85-12.84v31.84H202.54Zm-19-114.09H234.4v31.85ZM167.86,5.8l43.07,35.63L195.8,40l-.24,0a2.51,2.51,0,0,0-1.81.75l-25.9,25.9L142,40.73A2.47,2.47,0,0,0,140.2,40a.89.89,0,0,0-.27,0l-15.16,1.42Zm-50,41.35,21.37-2,25.06,25.06L138.2,96.28H101.31V60.84Zm27.45,132.42v11l-37.9-16.89v-8.74l37.9-16.85v11L118.6,169.42Zm-12.15,54.84H101.31V202.57l9.69,9.69ZM101.31,133.16V101.32h31.85Zm-48-79.91L108.93,48,97.18,57.72a2.51,2.51,0,0,0-.92,1.94V96.28H59.64a2.44,2.44,0,0,0-1.94.91L48,108.94Zm-6.13,64.61,13.67-16.54H96.26v36.89L70.17,164.3,45.11,139.25Zm49.11,27.49v45L73.74,167.87ZM41.43,211,5.8,167.87l35.63-43.1L40,140a2.57,2.57,0,0,0,.73,2l25.89,25.9L40.71,193.76a2.54,2.54,0,0,0-.73,2Zm3.68-14.46,25.06-25.06,26.09,26.09v36.89H60.82L47.14,217.87Zm8.15,86L48,226.8l9.71,11.75a2.47,2.47,0,0,0,1.94.91H96.26v36.62a2.52,2.52,0,0,0,.92,1.94l11.74,9.71Zm48.05-7.57V239.46H138.2L158,259.28l6.26,6.26L139.23,290.6l-21.37-2Zm66.55,55.05-43.09-35.64L140,295.73l.22,0A2.59,2.59,0,0,0,142,295l25.9-25.9,25.9,25.9a2.6,2.6,0,0,0,1.79.75l.23,0,15.17-1.44Zm50-41.35-21.36,2-25.07-25.07,6.25-6.25,19.83-19.82h36.9v35.42Zm64.62-6.13-55.68,5.28L238.54,278a2.53,2.53,0,0,0,.91-1.94V239.46h36.61a2.47,2.47,0,0,0,1.94-.91l9.72-11.76Zm6.1-64.59-13.69,16.55H239.45V197.52l26.08-26.09,25.05,25.06Zm5.72-6.92,1.44-15.18a2.46,2.46,0,0,0-.74-2L269.1,167.87,295,142a2.51,2.51,0,0,0,.74-2l-1.44-15.16,35.63,43.08Z"/></g></g></svg>