<svg xmlns="http://www.w3.org/2000/svg" viewBox="0 0 989.25 335.72"><defs><style>.cls-1{isolation:isolate;}.cls-2{fill:#ce9138;}.cls-3{fill:#676c72;}.cls-4{fill:#208754;mix-blend-mode:multiply;}.cls-5{fill:#fff;}</style></defs><title>Asset 2</title><g class="cls-1"><g id="Layer_2" data-name="Layer 2"><g id="Layer_1-2" data-name="Layer 1"><path class="cls-2" d="M381.79,174.61V84h54.26V96.6H395.42V124h35.5v12.75h-35.5v37.88Z"/><path class="cls-2" d="M437.3,149a27,27,0,0,1,2.19-10.81,28.68,28.68,0,0,1,14.62-14.94A25.2,25.2,0,0,1,464.68,121a23.63,23.63,0,0,1,6.87.94,22.68,22.68,0,0,1,5.38,2.31,16.6,16.6,0,0,1,3.62,2.88,10.54,10.54,0,0,1,1.88,2.62l.5-7.37h10.25v52.25H482.43V168a14.42,14.42,0,0,1-2,2.37,15.48,15.48,0,0,1-3.56,2.57,26.34,26.34,0,0,1-5.19,2.06,24.78,24.78,0,0,1-6.88.87,27.7,27.7,0,0,1-11.06-2.18,26.85,26.85,0,0,1-14.38-14.44A26,26,0,0,1,437.3,149Zm10.75-.62a17.32,17.32,0,0,0,1.31,6.75,16.17,16.17,0,0,0,8.94,8.94,17.5,17.5,0,0,0,6.88,1.31,17.89,17.89,0,0,0,6.93-1.31,16.68,16.68,0,0,0,5.51-3.63,16.26,16.26,0,0,0,3.56-5.37,18.53,18.53,0,0,0,0-13.38,15.61,15.61,0,0,0-3.56-5.31,17.15,17.15,0,0,0-5.51-3.56,17.9,17.9,0,0,0-6.93-1.32,17.51,17.51,0,0,0-6.88,1.32,16.56,16.56,0,0,0-5.38,3.56,16.74,16.74,0,0,0-4.87,12Z"/><path class="cls-2" d="M537.56,127l-5.63,7.5a8.38,8.38,0,0,0-.87-.62,11.88,11.88,0,0,0-1.94-1,23.66,23.66,0,0,0-2.75-.94,11.81,11.81,0,0,0-3.19-.44,9.57,9.57,0,0,0-4.18,1,3.78,3.78,0,0,0-2.07,3.75,5,5,0,0,0,1.69,3.88,17.68,17.68,0,0,0,4.19,2.69q2.51,1.19,5.44,2.43a28.37,28.37,0,0,1,5.44,3.07,16.06,16.06,0,0,1,4.18,4.5,12.55,12.55,0,0,1,1.69,6.81,15.26,15.26,0,0,1-4.81,11.57q-4.82,4.56-13.19,4.56a28,28,0,0,1-9.57-1.69,18,18,0,0,1-7.56-4.94,23.65,23.65,0,0,0,1.94-2.25c.71-.91,1.42-1.79,2.12-2.62s1.3-1.52,1.75-2.07.73-.81.82-.81.31.34.93.75a17.09,17.09,0,0,0,2.44,1.31,26.71,26.71,0,0,0,3.38,1.26,13.16,13.16,0,0,0,3.75.56,8.63,8.63,0,0,0,5.12-1.5,4.67,4.67,0,0,0,2.13-4,4.28,4.28,0,0,0-1.69-3.57,20.58,20.58,0,0,0-4.19-2.43c-1.66-.75-3.5-1.52-5.5-2.32a23.58,23.58,0,0,1-5.5-3.06,16.18,16.18,0,0,1-4.19-4.69,14.1,14.1,0,0,1-1.68-7.31,14.83,14.83,0,0,1,1.56-7.13,14.19,14.19,0,0,1,4-4.69,16.23,16.23,0,0,1,5.44-2.62,22,22,0,0,1,5.75-.81,22.72,22.72,0,0,1,7.75,1.5A19,19,0,0,1,537.56,127Z"/><path class="cls-2" d="M555.69,99.35h10.62v23.13h14V132h-14v42.63H555.69V132h-9.38v-9.5h9.38Z"/><path class="cls-2" d="M690.58,174.61H677.83c-.67-.83-1.42-1.7-2.25-2.62-.67-.83-1.48-1.81-2.44-2.94s-2-2.39-3.19-3.81a29.2,29.2,0,0,1-10.44,7.69A34.8,34.8,0,0,1,645,175.86a34.19,34.19,0,0,1-11.94-2,27.77,27.77,0,0,1-9.38-5.62,25.53,25.53,0,0,1-6.12-8.57,26.34,26.34,0,0,1-2.19-10.81,26.84,26.84,0,0,1,1.62-9.38,26.54,26.54,0,0,1,4.51-7.81,29.63,29.63,0,0,1,6.75-5.94,30,30,0,0,1,8.5-3.75c-1.17-1.75-2.21-3.39-3.13-4.94s-1.71-2.89-2.37-4.06a76.21,76.21,0,0,1-3.25-7.31,20.08,20.08,0,0,1-1.25-7.19,17.29,17.29,0,0,1,1.68-7.69A17.06,17.06,0,0,1,633,85a21.53,21.53,0,0,1,6.88-3.69,28.4,28.4,0,0,1,8.31-1.44,30,30,0,0,1,10.88,1.38,30.76,30.76,0,0,1,7.75,3.62L663.89,89l-2,2.81a8.34,8.34,0,0,0-.94,1.44,16.28,16.28,0,0,0-3.37-1.82A16.67,16.67,0,0,0,653,90.35a18.47,18.47,0,0,0-5.25,0,14.38,14.38,0,0,0-4.75,1.5A9.25,9.25,0,0,0,639.51,95a8.72,8.72,0,0,0-1.31,4.87,13.7,13.7,0,0,0,1.25,6,20.49,20.49,0,0,0,1.75,3.25l27.25,36.26L678,121h11.38l-13.5,34.26Zm-47.13-43.13a18.66,18.66,0,0,0-6.5,1.44,19.06,19.06,0,0,0-5.57,3.56,17.1,17.1,0,0,0-3.87,5.32,14.91,14.91,0,0,0-1.44,6.43,15.6,15.6,0,0,0,6.13,13,18.2,18.2,0,0,0,6.31,3.12,26.38,26.38,0,0,0,7.19,1,21.84,21.84,0,0,0,5.12-.62,28.65,28.65,0,0,0,5-1.69,22.77,22.77,0,0,0,4.37-2.56,15.15,15.15,0,0,0,3.25-3.25q-4.76-6-10-12.69T643.45,131.48Z"/><path class="cls-2" d="M733.08,174.61V84h13.63v38.5h45.38V84h13.76v30.19q0,7.44-.07,15.12t-.06,15.13v30.19H792.09V135.48H746.71v39.13Z"/><path class="cls-2" d="M818.6,149a27,27,0,0,1,2.19-10.81,28.68,28.68,0,0,1,14.62-14.94A25.2,25.2,0,0,1,846,121a23.63,23.63,0,0,1,6.87.94,22.68,22.68,0,0,1,5.38,2.31,16.6,16.6,0,0,1,3.62,2.88,10.54,10.54,0,0,1,1.88,2.62l.5-7.37h10.25v52.25H863.73V168a14.42,14.42,0,0,1-2,2.37,15.48,15.48,0,0,1-3.56,2.57A26.34,26.34,0,0,1,853,175a24.78,24.78,0,0,1-6.88.87A27.7,27.7,0,0,1,835,173.68a26.85,26.85,0,0,1-14.38-14.44A26.15,26.15,0,0,1,818.6,149Zm10.75-.62a17.32,17.32,0,0,0,1.31,6.75,16.25,16.25,0,0,0,8.94,8.94,17.5,17.5,0,0,0,6.88,1.31,17.89,17.89,0,0,0,6.93-1.31,16.68,16.68,0,0,0,5.51-3.63,16.26,16.26,0,0,0,3.56-5.37,18.53,18.53,0,0,0,0-13.38,15.61,15.61,0,0,0-3.56-5.31,17.15,17.15,0,0,0-5.51-3.56,17.9,17.9,0,0,0-6.93-1.32,17.51,17.51,0,0,0-6.88,1.32,16.52,16.52,0,0,0-5.37,3.56,16.69,16.69,0,0,0-4.88,12Z"/><path class="cls-2" d="M924.74,161.74c1.16,1.41,2.27,2.77,3.31,4.06s2.1,2.65,3.19,4.06a28.81,28.81,0,0,1-7.88,4.38,28.25,28.25,0,0,1-20.31-.56A28,28,0,0,1,888.29,159a27,27,0,0,1,0-21.26,27.62,27.62,0,0,1,5.94-8.69,28.77,28.77,0,0,1,8.82-5.87A26.92,26.92,0,0,1,913.86,121a27.84,27.84,0,0,1,9.69,1.63,30.58,30.58,0,0,1,8.06,4.37l-6.87,8.13a15.55,15.55,0,0,0-4.88-2.69,18.59,18.59,0,0,0-6-.94A17.54,17.54,0,0,0,907,132.8a17.23,17.23,0,0,0-5.43,3.56,15.49,15.49,0,0,0-3.57,5.31,18.53,18.53,0,0,0,0,13.38,16.13,16.13,0,0,0,3.57,5.37,16.75,16.75,0,0,0,5.43,3.63,17.54,17.54,0,0,0,6.88,1.31,18.32,18.32,0,0,0,6-.94A15.53,15.53,0,0,0,924.74,161.74Z"/><path class="cls-2" d="M979.12,121l6.37,6.38q-4.74,4.37-9.06,8.5c-2.87,2.75-5.9,5.62-9.06,8.62q5.63,7.5,11,15.07t10.88,15.06H977q-4.25-5.87-8.56-11.56t-8.56-11.56l-7.26,6.62v16.5H942V77.47h10.62v68.14q7-6.37,13.38-12.31T979.12,121Z"/><path class="cls-3" d="M394.22,246a5.52,5.52,0,0,0-2-4.48q-2-1.65-7.27-3.13a25.51,25.51,0,0,1-7.72-3.24,7.84,7.84,0,0,1-.24-12.84,13.17,13.17,0,0,1,8.21-2.44,13.53,13.53,0,0,1,6.07,1.31,9.9,9.9,0,0,1,4.15,3.64,9.6,9.6,0,0,1,1.47,5.21H394a7.14,7.14,0,0,0-2.38-5.61,9.32,9.32,0,0,0-6.41-2.12,10.08,10.08,0,0,0-6.21,1.74,5.43,5.43,0,0,0-2.32,4.56,5.16,5.16,0,0,0,2.08,4.23,19.1,19.1,0,0,0,6.66,2.89,31.44,31.44,0,0,1,6.95,2.6,10,10,0,0,1,3.55,3.21,8.09,8.09,0,0,1,1.19,4.42,7.69,7.69,0,0,1-3.21,6.45,13.7,13.7,0,0,1-8.48,2.43,16.57,16.57,0,0,1-6.6-1.28,10.16,10.16,0,0,1-4.56-3.6,9.33,9.33,0,0,1-1.55-5.31h2.87a6.79,6.79,0,0,0,2.69,5.68,11.36,11.36,0,0,0,7.15,2.08,10.63,10.63,0,0,0,6.39-1.75A5.49,5.49,0,0,0,394.22,246Z"/><path class="cls-3" d="M412.55,254.86a11,11,0,0,1-5.83-1.59,10.79,10.79,0,0,1-4.06-4.42,13.92,13.92,0,0,1-1.45-6.37v-1a14.94,14.94,0,0,1,1.42-6.57,11.2,11.2,0,0,1,3.94-4.59,9.73,9.73,0,0,1,5.47-1.67,9.14,9.14,0,0,1,7.3,3.14q2.7,3.15,2.7,8.59v1.57H404v.54a10.61,10.61,0,0,0,2.46,7.16,7.85,7.85,0,0,0,6.21,2.86,9.22,9.22,0,0,0,4-.81,8.93,8.93,0,0,0,3.12-2.62l1.75,1.33A10.18,10.18,0,0,1,412.55,254.86ZM412,231a7,7,0,0,0-5.32,2.32,10.66,10.66,0,0,0-2.63,6.21h15.17v-.3a9.3,9.3,0,0,0-2.08-5.94A6.46,6.46,0,0,0,412,231Z"/><path class="cls-3" d="M436.93,252.5a7.44,7.44,0,0,0,4.9-1.64,5.8,5.8,0,0,0,2.14-4.27h2.69a8,8,0,0,1-1.45,4.22,9.09,9.09,0,0,1-3.55,3,10.61,10.61,0,0,1-4.73,1.07A9.76,9.76,0,0,1,429,251.4q-2.91-3.45-2.91-9.3v-.84a15.82,15.82,0,0,1,1.31-6.61,10.1,10.1,0,0,1,3.75-4.45,10.41,10.41,0,0,1,5.72-1.56,9.77,9.77,0,0,1,6.86,2.48,9,9,0,0,1,2.89,6.52H444a6.78,6.78,0,0,0-7.06-6.62,7,7,0,0,0-5.88,2.74c-1.39,1.82-2.09,4.38-2.09,7.66v.82c0,3.23.7,5.74,2.09,7.55A7,7,0,0,0,436.93,252.5Z"/><path class="cls-3" d="M450.79,241.38a14.94,14.94,0,0,1,1.42-6.57,10.61,10.61,0,0,1,9.85-6.17,10.4,10.4,0,0,1,8.18,3.54,13.63,13.63,0,0,1,3.13,9.38v.59a15,15,0,0,1-1.41,6.6,10.47,10.47,0,0,1-4,4.52,10.94,10.94,0,0,1-5.87,1.59,10.41,10.41,0,0,1-8.17-3.54,13.59,13.59,0,0,1-3.15-9.38Zm2.81.77a11.45,11.45,0,0,0,2.35,7.44,7.94,7.94,0,0,0,12.29,0,11.82,11.82,0,0,0,2.35-7.67v-.54a13,13,0,0,0-1.07-5.31,8.66,8.66,0,0,0-3-3.73,7.69,7.69,0,0,0-4.44-1.32A7.47,7.47,0,0,0,456,234a11.88,11.88,0,0,0-2.36,7.68Z"/><path class="cls-3" d="M481.91,229.11l.09,4.32a10,10,0,0,1,3.55-3.56,9.24,9.24,0,0,1,4.7-1.23q4.06,0,6.06,2.29t2,6.87v16.6h-2.78V237.78a7.78,7.78,0,0,0-1.44-5.05,5.64,5.64,0,0,0-4.53-1.66,7.09,7.09,0,0,0-4.59,1.62,9.6,9.6,0,0,0-3,4.39V254.4h-2.78V229.11Z"/><path class="cls-3" d="M504.51,241.52q0-5.9,2.63-9.39a8.48,8.48,0,0,1,7.14-3.49,8.8,8.8,0,0,1,7.81,4V218.49h2.78V254.4h-2.62l-.11-3.37a9,9,0,0,1-7.9,3.83,8.43,8.43,0,0,1-7.05-3.51q-2.69-3.53-2.68-9.5Zm2.83.49a13.22,13.22,0,0,0,1.94,7.63,6.28,6.28,0,0,0,5.47,2.79,7.54,7.54,0,0,0,7.34-4.55V236q-2.18-4.94-7.29-4.93a6.35,6.35,0,0,0-5.5,2.77C508,235.69,507.34,238.41,507.34,242Z"/><path class="cls-3" d="M563.51,238.08H547.6V252h18.3v2.43H544.72v-34h21.06v2.44H547.6v12.85h15.91Z"/><path class="cls-3" d="M569.83,241.52q0-5.9,2.63-9.39a8.45,8.45,0,0,1,7.14-3.49,8.79,8.79,0,0,1,7.8,4V218.49h2.78V254.4h-2.61l-.12-3.37a9,9,0,0,1-7.9,3.83,8.46,8.46,0,0,1-7-3.51q-2.67-3.53-2.67-9.5Zm2.82.49a13.22,13.22,0,0,0,1.94,7.63,6.29,6.29,0,0,0,5.47,2.79,7.53,7.53,0,0,0,7.34-4.55V236q-2.17-4.94-7.29-4.93a6.34,6.34,0,0,0-5.49,2.77Q572.66,236.62,572.65,242Z"/><path class="cls-3" d="M597.48,221.8a1.87,1.87,0,0,1,.51-1.33,2.08,2.08,0,0,1,2.82,0,1.93,1.93,0,0,1,0,2.66,2.14,2.14,0,0,1-2.82,0A1.86,1.86,0,0,1,597.48,221.8Zm3.3,32.6H598V229.11h2.81Z"/><path class="cls-3" d="M612.81,222.63v6.48h5.24v2.29h-5.24v16.87a5.3,5.3,0,0,0,.76,3.13,3,3,0,0,0,2.54,1,16.59,16.59,0,0,0,2.27-.23l.12,2.27a9.28,9.28,0,0,1-3,.39,5,5,0,0,1-4.18-1.67,7.87,7.87,0,0,1-1.31-4.92V231.4h-4.65v-2.29H610v-6.48Z"/><path class="cls-3" d="M623.78,221.8a1.87,1.87,0,0,1,.51-1.33,2.08,2.08,0,0,1,2.82,0,1.93,1.93,0,0,1,0,2.66,2.14,2.14,0,0,1-2.82,0A1.86,1.86,0,0,1,623.78,221.8Zm3.3,32.6h-2.81V229.11h2.81Z"/><path class="cls-3" d="M633.22,241.38a14.94,14.94,0,0,1,1.42-6.57,10.61,10.61,0,0,1,9.85-6.17,10.4,10.4,0,0,1,8.18,3.54,13.63,13.63,0,0,1,3.13,9.38v.59a15,15,0,0,1-1.41,6.6,10.43,10.43,0,0,1-4,4.52,10.91,10.91,0,0,1-5.86,1.59,10.41,10.41,0,0,1-8.17-3.54,13.59,13.59,0,0,1-3.15-9.38Zm2.81.77a11.45,11.45,0,0,0,2.35,7.44,7.94,7.94,0,0,0,12.29,0,11.82,11.82,0,0,0,2.35-7.67v-.54a13,13,0,0,0-1.07-5.31,8.66,8.66,0,0,0-3-3.73,7.69,7.69,0,0,0-4.44-1.32,7.47,7.47,0,0,0-6.1,2.94,11.88,11.88,0,0,0-2.36,7.68Z"/><path class="cls-3" d="M664.34,229.11l.09,4.32a10,10,0,0,1,3.55-3.56,9.24,9.24,0,0,1,4.7-1.23q4.07,0,6.06,2.29t2,6.87v16.6H678V237.78a7.72,7.72,0,0,0-1.43-5.05,5.64,5.64,0,0,0-4.53-1.66,7.07,7.07,0,0,0-4.59,1.62,9.6,9.6,0,0,0-3,4.39V254.4h-2.78V229.11Z"/><path class="cls-4" d="M335.13,166.26l-41.68-50.4L287.29,50.7A2.52,2.52,0,0,0,285,48.43l-65.15-6.15L169.46.58a2.51,2.51,0,0,0-3.21,0l-50.41,41.7L50.72,48.43a2.52,2.52,0,0,0-2.26,2.27l-6.18,65.15L.58,166.26a2.52,2.52,0,0,0,0,3.21l41.69,50.42L48.45,285a2.53,2.53,0,0,0,2.25,2.28l65.14,6.15,50.41,41.7a2.51,2.51,0,0,0,3.21,0l50.42-41.69L285,287.29a2.54,2.54,0,0,0,2.27-2.28l6.16-65.14,41.68-50.4A2.49,2.49,0,0,0,335.13,166.26Zm-44.54-27L265.53,164.3l-26.08-26.08V101.31h35.43l13.69,16.56ZM262,167.86l-22.51,22.52v-45ZM282.47,53.25l5.26,55.69L278,97.17a2.49,2.49,0,0,0-1.94-.9H239.45V59.65a2.51,2.51,0,0,0-.92-1.94L226.78,48Zm-92.1,186.21-19.82,19.82L167.86,262l-2.69-2.69-19.83-19.82Zm-45-143.19,22.52-22.51,22.51,22.51ZM234.4,60.84V96.27H197.5L171.42,70.2l25.07-25.07,21.36,2Zm-66.55-55,43.08,35.63L195.8,40l-.24,0a2.51,2.51,0,0,0-1.81.75l-25.9,25.9L142,40.73A10.28,10.28,0,0,0,140.2,40a1.32,1.32,0,0,0-.27,0l-15.16,1.43Zm-50,41.35,21.37-2,25.06,25.06L138.2,96.27H101.31V60.84Zm-64.58,6.1L108.93,48,97.17,57.71a2.56,2.56,0,0,0-.91,1.94V96.27H59.64a2.45,2.45,0,0,0-1.94.92L48,108.93Zm-6.14,64.61,13.68-16.55H96.26v36.9L70.17,164.3,45.11,139.24Zm49.12,27.49v45L73.74,167.87ZM41.43,211,5.8,167.86l35.63-43.09L40,140a2.53,2.53,0,0,0,.72,2l25.89,25.9L40.71,193.75a2.53,2.53,0,0,0-.72,2Zm3.68-14.47,25.06-25.06,26.09,26.09v36.9H60.82L47.14,217.87Zm8.15,86L48,226.8l9.71,11.75a2.5,2.5,0,0,0,1.94.91H96.26v36.61a2.49,2.49,0,0,0,.92,1.94l11.74,9.72Zm48.05-7.57V239.46H138.2L158,259.28l6.26,6.26L139.23,290.6l-21.37-2Zm66.54,55-43.08-35.64L140,295.72l.21,0A2.6,2.6,0,0,0,142,295l25.9-25.9,25.9,25.9a2.6,2.6,0,0,0,1.79.75c.07,0,.14,0,.23,0l15.17-1.43Zm50-41.35-21.36,2-25.07-25.07,6.25-6.25,19.83-19.82h36.9v35.43Zm64.62-6.12-55.68,5.27L238.54,278a2.5,2.5,0,0,0,.91-1.94V239.46h36.61a2.5,2.5,0,0,0,1.94-.91l9.73-11.76Zm6.1-64.6-13.69,16.56H239.45v-36.9l26.08-26.09,25.06,25.06Zm5.72-6.92,1.44-15.18a2.49,2.49,0,0,0-.74-2L269.1,167.87,295,142a2.51,2.51,0,0,0,.74-2l-1.44-15.16,35.63,43.07Z"/><path class="cls-5" d="M122.62,169.24l23.52,8.93v9.69L112.77,173v-7.7l33.37-14.83v9.69Z"/><path class="cls-5" d="M159.13,199.38h-7.62l22.85-63H182Z"/><path class="cls-5" d="M213.14,169l-24.64-9v-9.53L223,165.29V173L188.5,187.82v-9.53Z"/></g></g></g></svg>