<svg xmlns="http://www.w3.org/2000/svg" width="107.243" height="105.675" viewBox="0 0 107.243 105.675">
  <g id="Layer_2" data-name="Layer 2" transform="translate(4.243 3.001)" style="isolation: isolate">
    <g id="Layer_1" data-name="Layer 1" transform="translate(0 -0.001)">
      <g id="Path_469" data-name="Path 469" transform="translate(0 0.001)" fill="#e0e0e0">
        <path d="M 52.04994201660156 101.1740798950195 C 50.25191497802734 101.1740798950195 48.56150054931641 100.473876953125 47.29010009765625 99.20248413085938 L -1.060657143592834 50.85172271728516 L -2.121314287185669 49.79106521606445 L -1.060657143592834 48.73040771484375 L 47.19718551635742 0.4725664556026459 C 48.46738433837891 -0.7996335625648499 50.15811538696289 -1.500733494758606 51.95705795288086 -1.500733494758606 C 53.75197219848633 -1.500733494758606 55.44001388549805 -0.802290678024292 56.71022796630859 0.4659093022346497 C 59.33528518676758 3.086852073669434 59.33864212036133 7.354766368865967 56.71770095825195 9.979809761047363 L 23.59808540344238 43.09942245483398 L 94.77352905273438 43.09942245483398 C 98.48251342773438 43.09942245483398 101.5 46.11690902709961 101.5 49.82590866088867 C 101.5 53.53489685058594 98.48251342773438 56.5523796081543 94.77352905273438 56.5523796081543 L 23.65782356262207 56.5523796081543 L 56.80944442749023 89.68243408203125 C 59.43438720703125 92.30736541748047 59.43438720703125 96.57789611816406 56.80978393554688 99.20248413085938 C 55.53838729858398 100.473876953125 53.84797286987305 101.1740798950195 52.04994201660156 101.1740798950195 Z" stroke="none"/>
        <path d="M 51.95706176757813 -0.000732421875 C 50.61780166625977 -0.00080108642578125 49.27885818481445 0.5106048583984375 48.25784683227539 1.533226013183594 L 0 49.79105377197266 L 48.35075378417969 98.14182281494141 C 49.37226104736328 99.16332244873047 50.71110534667969 99.674072265625 52.04994583129883 99.674072265625 C 53.38878631591797 99.674072265625 54.72762298583984 99.16332244873047 55.74912261962891 98.14182281494141 C 57.79213714599609 96.09880828857422 57.79213714599609 92.78643798828125 55.74912261962891 90.74343872070313 L 20.03484344482422 55.05239105224609 L 94.77352142333984 55.05239105224609 C 97.6600341796875 55.05239105224609 100 52.71240997314453 100 49.82590103149414 C 100 46.93939208984375 97.6600341796875 44.59942245483398 94.77352142333984 44.59942245483398 L 19.97676849365234 44.59942245483398 L 55.65621566772461 8.919975280761719 C 57.69601440429688 6.876976013183594 57.69341659545898 3.567207336425781 55.65041351318359 1.52740478515625 C 54.63003158569336 0.5086288452148438 53.29338455200195 -0.00067138671875 51.95706176757813 -0.000732421875 M 51.95675277709961 -3.000732421875 L 51.95675277709961 -0.000732421875 L 51.95676803588867 -3.000732421875 L 51.9569091796875 -3.000732421875 L 51.95722961425781 -3.000732421875 C 54.15237045288086 -3.000625610351563 56.21675491333008 -2.146469116210938 57.77007675170898 -0.5955734252929688 C 60.98043060302734 2.609748840332031 60.98452377319336 7.82928466796875 57.77920150756836 11.03964233398438 L 27.21941375732422 41.59942245483398 L 94.77352142333984 41.59942245483398 C 99.30961608886719 41.59942245483398 103 45.2898063659668 103 49.82590103149414 C 103 54.36200714111328 99.30961608886719 58.05239105224609 94.77352142333984 58.05239105224609 L 27.28082275390625 58.05239105224609 L 57.86975479125977 88.62142181396484 C 59.42515563964844 90.17682647705078 60.2813835144043 92.24391937255859 60.2813835144043 94.442626953125 C 60.2813835144043 96.64133453369141 59.4251708984375 98.70841979980469 57.87044525146484 100.2631454467773 C 56.31570816040039 101.8178558349609 54.24861526489258 102.674072265625 52.0499382019043 102.674072265625 C 49.85126113891602 102.674072265625 47.7841682434082 101.8178558349609 46.22944641113281 100.2631607055664 L -2.121322631835938 51.91237640380859 L -4.242645263671875 49.79105377197266 L -2.121322631835938 47.66973114013672 L 46.13652420043945 -0.5880966186523438 C 47.68930816650391 -2.143318176269531 49.75689315795898 -3.000732421875 51.95675277709961 -3.000732421875 Z" stroke="none" fill="#e0e0e0"/>
      </g>
    </g>
  </g>
</svg>
