<svg xmlns="http://www.w3.org/2000/svg" width="100" height="100" viewBox="0 0 100 100">
  <g id="Group_53" data-name="Group 53" transform="translate(-1639.835 -7966.314)">
    <path id="Path_447" data-name="Path 447" d="M1468.021,1269.467a17.058,17.058,0,0,1-12.131-5.055l-65.179-65.173a17.155,17.155,0,1,1,24.256-24.265l65.2,65.205a17.162,17.162,0,0,1-12.131,29.288Z" transform="translate(254.4 6796.606)" fill="#ea4334"/>
    <path id="Path_448" data-name="Path 448" d="M1402.624,1269.707a17.187,17.187,0,0,1-12.154-29.34l65.623-65.625a17.188,17.188,0,0,1,24.307,24.308l-65.623,65.625A17.136,17.136,0,0,1,1402.624,1269.707Z" transform="translate(254.4 6796.606)" fill="#ea4334"/>
  </g>
</svg>
