<svg xmlns="http://www.w3.org/2000/svg" width="120.672" height="120.672" viewBox="0 0 120.672 120.672">
  <g id="Group_57" data-name="Group 57" transform="translate(-1231 -632.651)">
    <g id="Ellipse_6_9_" transform="translate(1324.177 632.651) rotate(45)">
      <path id="Path_56" data-name="Path 56" d="M365.642,295.784a19.442,19.442,0,1,1,19.442-19.442A19.361,19.361,0,0,1,365.642,295.784Zm0-24.482a4.922,4.922,0,0,0-5.04,5.04,5.04,5.04,0,1,0,10.081,0A4.922,4.922,0,0,0,365.642,271.3Z" transform="translate(-346.2 -256.9)" fill="#f2e877"/>
    </g>
    <g id="Ellipse_7_9_" transform="translate(1291.591 665.237) rotate(45)">
      <path id="Path_57" data-name="Path 57" d="M365.642,308.584a19.442,19.442,0,1,1,19.442-19.442A19.361,19.361,0,0,1,365.642,308.584Zm0-24.122a4.922,4.922,0,0,0-5.04,5.04,5.04,5.04,0,1,0,10.081,0A4.922,4.922,0,0,0,365.642,284.461Z" transform="translate(-346.2 -269.7)" fill="#f2e877"/>
    </g>
    <g id="Ellipse_8_9_" transform="translate(1258.495 698.333) rotate(45)">
      <path id="Path_58" data-name="Path 58" d="M365.642,321.584a19.442,19.442,0,1,1,19.442-19.442A19.592,19.592,0,0,1,365.642,321.584Zm0-24.482a4.922,4.922,0,0,0-5.04,5.041,5.04,5.04,0,0,0,10.081,0A4.922,4.922,0,0,0,365.642,297.1Z" transform="translate(-346.2 -282.7)" fill="#f2e877"/>
    </g>
  </g>
</svg>
