<svg xmlns="http://www.w3.org/2000/svg" width="82.651" height="106" viewBox="0 0 82.651 106">
    <g id="prefix__Layer_2" data-name="Layer 2" transform="translate(3 3)">
        <g id="prefix__Layer_1" data-name="Layer 1">
            <g id="prefix__Path_467" data-name="Path 467" style="fill:#8cd5ff">
                <path d="M49.997 101.5H37.055l.35-1.788 5.144-26.304H27.473l-5.257 26.88-.237 1.212H9.098l.35-1.788 5.144-26.304H-1.5V60.936h18.464l4.153-21.358h-17.4V27.106h19.847L28.975-.29l.239-1.209h12.861L41.722.29l-5.283 26.782h15.1l5.372-27.36.238-1.212h12.943L69.74.29l-5.277 26.782h13.688v12.473H62.02l-4.153 21.357h15.134v12.472h-17.51l-5.258 26.914-.237 1.212zM29.844 60.936h15.077l4.152-21.358H33.997l-4.153 21.358z" style="stroke:none"/>
                <path d="M48.762 100l5.494-28.126h17.246v-9.472H56.049l4.736-24.357H76.65v-9.473H62.639L68.268 0h-9.885l-5.609 28.572h-18.16L40.25 0h-9.803l-5.65 28.606H5.217v9.472h17.72L18.2 62.436H0v9.472h16.414L10.92 100h9.824l5.494-28.092h18.133L38.877 100h9.885M32.76 38.078h18.133l-4.736 24.358H28.024l4.736-24.358M51.233 103h-16l.7-3.576 4.794-24.516H28.708l-5.02 25.668-.474 2.424H7.277l.699-3.576 4.795-24.516H-3V59.436h18.727l3.57-18.358H2.217V25.606h20.115L27.503-.58 27.981-3H43.9L43.194.58l-4.93 24.992h12.042l5.133-26.15L55.915-3h16.002L71.21.58l-4.924 24.992h13.364v15.473H63.258l-3.57 18.357h14.814v15.472H56.726l-5.02 25.701-.473 2.425zm-19.57-43.564h12.021l3.57-18.358h-12.02l-3.57 18.358z" style="stroke:none;fill:#8cd5ff"/>
            </g>
        </g>
    </g>
</svg>
