<?xml version="1.0" encoding="iso-8859-1"?>
<!-- Generator: Adobe Illustrator 19.1.1, SVG Export Plug-In . SVG Version: 6.00 Build 0)  -->
<svg version="1.1" id="Layer_1" xmlns="http://www.w3.org/2000/svg" xmlns:xlink="http://www.w3.org/1999/xlink" x="0px" y="0px"
	 viewBox="0 0 40 40" style="enable-background:new 0 0 40 40;" xml:space="preserve">
<g>
	<polygon style="fill:#FFEEA3;" points="11.388,7.612 8.424,6.5 11.388,5.388 12.5,2.424 13.612,5.388 16.576,6.5 13.612,7.612 
		12.5,10.576 	"/>
	<path style="fill:#F5C276;" d="M12.5,3.848l0.564,1.503l0.16,0.426l0.426,0.16L15.152,6.5l-1.503,0.564l-0.426,0.16l-0.16,0.426
		L12.5,9.152l-0.564-1.503l-0.16-0.426l-0.426-0.16L9.848,6.5l1.503-0.564l0.426-0.16l0.16-0.426L12.5,3.848 M12.5,1L11,5L7,6.5
		L11,8l1.5,4L14,8l4-1.5L14,5L12.5,1L12.5,1z"/>
</g>
<g>
	<polygon style="fill:#FFEEA3;" points="5.396,15.604 3.581,15 5.396,14.396 6,12.581 6.604,14.396 8.419,15 6.604,15.604 6,17.419 
			"/>
	<path style="fill:#F5C276;" d="M6,14.162l0.051,0.154l0.158,0.474l0.474,0.158L6.838,15l-0.154,0.051l-0.474,0.158l-0.158,0.474
		L6,15.838l-0.051-0.154l-0.158-0.474l-0.474-0.158L5.162,15l0.154-0.051l0.474-0.158l0.158-0.474L6,14.162 M6,11l-1,3l-3,1l3,1l1,3
		l1-3l3-1l-3-1L6,11L6,11z"/>
</g>
<g>
	<path style="fill:#FFEEA3;" d="M24.5,38.5c-7.72,0-14-6.28-14-14s6.28-14,14-14c0.681,0,1.374,0.055,2.072,0.163
		C23.022,12.549,20.5,16.717,20.5,21c0,5.986,4.514,10.5,10.5,10.5c2.22,0,4.697-0.868,6.674-2.284
		C35.711,34.755,30.501,38.5,24.5,38.5z"/>
	<path style="fill:#F5C276;" d="M24.5,11c0.191,0,0.384,0.004,0.577,0.013C22.05,13.219,20,17.064,20,21c0,6.271,4.729,11,11,11
		c1.832,0,3.831-0.564,5.605-1.528C34.383,35.021,29.756,38,24.5,38C17.056,38,11,31.944,11,24.5S17.056,11,24.5,11 M24.5,10
		C16.492,10,10,16.492,10,24.5C10,32.508,16.492,39,24.5,39c6.876,0,12.621-4.791,14.112-11.213C36.747,29.596,33.803,31,31,31
		c-5.72,0-10-4.28-10-10c0-4.611,3.062-9.157,7.227-10.499C27.036,10.185,25.791,10,24.5,10L24.5,10z"/>
</g>
<path style="fill:#FFF9DE;" d="M31,32c-6.271,0-11-4.729-11-11c0-3.924,2.039-7.756,5.051-9.965
	c-0.011-0.008-0.022-0.015-0.033-0.023c-0.02-0.001-0.04-0.001-0.06-0.001C24.263,11.206,15,14.238,15,22.928
	C15,29.595,20.405,35,27.072,35c4.824,0,8.648-3.488,9.453-4.377c0.026-0.051,0.055-0.1,0.081-0.151C34.831,31.436,32.832,32,31,32z
	"/>
</svg>
