<svg xmlns="http://www.w3.org/2000/svg" viewBox="0 0 67.94 63.76"><title>Asset 11</title><g id="Layer_2" data-name="Layer 2"><g id="Layer_1-2" data-name="Layer 1"><path d="M0,15.23A14.59,14.59,0,0,1,1.2,9.35,15.45,15.45,0,0,1,4.5,4.5a15.27,15.27,0,0,1,11-4.5,15.46,15.46,0,0,1,6.06,1.2,14.8,14.8,0,0,1,4.9,3.3A16,16,0,0,1,29.7,9.35a14.59,14.59,0,0,1,1.2,5.88,14.54,14.54,0,0,1-1.2,5.87A16.05,16.05,0,0,1,26.45,26a14.93,14.93,0,0,1-4.9,3.29,15.46,15.46,0,0,1-6.06,1.2A15.43,15.43,0,0,1,1.2,21.1,14.54,14.54,0,0,1,0,15.23Zm8.1,0a7.82,7.82,0,0,0,2.14,5.61,7,7,0,0,0,5.25,2.22,7,7,0,0,0,5.26-2.22,7.81,7.81,0,0,0,2.13-5.61,7.77,7.77,0,0,0-2.13-5.66,7.1,7.1,0,0,0-5.26-2.18,7.09,7.09,0,0,0-5.25,2.18A7.77,7.77,0,0,0,8.1,15.23Zm3,44.16L50.76.36l6,4.09-39.53,59ZM37,48.53a14.43,14.43,0,0,1,1.21-5.88,15.43,15.43,0,0,1,8.19-8.14,15.86,15.86,0,0,1,12.15,0,14.93,14.93,0,0,1,4.9,3.29,16.13,16.13,0,0,1,3.25,4.85,15,15,0,0,1,0,11.76,16,16,0,0,1-3.25,4.85,15,15,0,0,1-4.9,3.3,15.52,15.52,0,0,1-20.34-8.15A14.43,14.43,0,0,1,37,48.53Zm8.11,0a7.78,7.78,0,0,0,2.13,5.61,7.31,7.31,0,0,0,10.51,0,7.74,7.74,0,0,0,2.14-5.61,7.71,7.71,0,0,0-2.14-5.65,7.4,7.4,0,0,0-10.51,0A7.74,7.74,0,0,0,45.15,48.53Z"/></g></g></svg>