<?xml version="1.0" encoding="iso-8859-1"?>
<!-- Generator: Adobe Illustrator 19.0.0, SVG Export Plug-In . SVG Version: 6.00 Build 0)  -->
<svg version="1.1" id="Layer_1" xmlns="http://www.w3.org/2000/svg" xmlns:xlink="http://www.w3.org/1999/xlink" x="0px" y="0px"
	 viewBox="0 0 502 502" style="enable-background:new 0 0 502 502;" xml:space="preserve">
<g>
	<g>
		<path style="fill:#C7EBFF;" d="M176.062,222.224h-121.1C30.13,222.224,10,202.093,10,177.261v-121.1
			c0-24.832,20.13-44.963,44.963-44.963h121.1c24.832,0,44.963,20.13,44.963,44.963v121.1
			C221.025,202.093,200.894,222.224,176.062,222.224z"/>
		<path d="M176.062,232.224H54.963C24.656,232.224,0,207.567,0,177.261V56.162C0,25.855,24.656,1.199,54.963,1.199h121.099
			c30.307,0,54.963,24.656,54.963,54.963v121.099C231.025,207.567,206.369,232.224,176.062,232.224z M54.963,21.199
			C35.684,21.199,20,36.884,20,56.162v121.099c0,19.278,15.684,34.963,34.963,34.963h121.099c19.279,0,34.963-15.685,34.963-34.963
			V56.162c0-19.278-15.684-34.963-34.963-34.963C176.062,21.199,54.963,21.199,54.963,21.199z"/>
	</g>
	<g>
		<path d="M46.9,182c-5.523,0-10-4.478-10-10v-23c0-5.522,4.477-10,10-10s10,4.478,10,10v23C56.9,177.522,52.423,182,46.9,182z"/>
	</g>
	<g>
		<path d="M46.9,122c-5.523,0-10-4.478-10-10V65.1c0-14.888,12.112-27,27-27H86c5.523,0,10,4.478,10,10s-4.477,10-10,10H63.9
			c-3.86,0-7,3.141-7,7V112C56.9,117.522,52.423,122,46.9,122z"/>
	</g>
	<g>
		<path style="fill:#50A5DC;" d="M447.037,222.224h-121.1c-24.832,0-44.963-20.13-44.963-44.963v-121.1
			c0-24.832,20.13-44.963,44.963-44.963h121.1c24.832,0,44.963,20.13,44.963,44.963v121.1
			C492,202.093,471.87,222.224,447.037,222.224z"/>
		<path d="M447.037,232.224H325.938c-30.307,0-54.963-24.656-54.963-54.963V56.162c0-30.307,24.656-54.963,54.963-54.963h121.099
			C477.344,1.199,502,25.855,502,56.162v121.099C502,207.567,477.344,232.224,447.037,232.224z M325.938,21.199
			c-19.279,0-34.963,15.685-34.963,34.963v121.099c0,19.278,15.684,34.963,34.963,34.963h121.099
			c19.279,0,34.963-15.685,34.963-34.963V56.162c0-19.278-15.684-34.963-34.963-34.963
			C447.037,21.199,325.938,21.199,325.938,21.199z"/>
	</g>
	<g>
		<path style="fill:#50A5DC;" d="M176.062,490.801h-121.1C30.13,490.801,10,470.671,10,445.838v-121.1
			c0-24.832,20.13-44.963,44.963-44.963h121.1c24.832,0,44.963,20.13,44.963,44.963v121.1
			C221.025,470.671,200.894,490.801,176.062,490.801z"/>
		<path d="M176.062,500.801H54.963C24.656,500.801,0,476.145,0,445.838V324.739c0-30.307,24.656-54.963,54.963-54.963h121.099
			c30.307,0,54.963,24.656,54.963,54.963v121.099C231.025,476.145,206.369,500.801,176.062,500.801z M54.963,289.776
			C35.684,289.776,20,305.461,20,324.739v121.099c0,19.278,15.684,34.963,34.963,34.963h121.099
			c19.279,0,34.963-15.685,34.963-34.963V324.739c0-19.278-15.684-34.963-34.963-34.963H54.963z"/>
	</g>
	<g>
		<path style="fill:#50A5DC;" d="M447.037,490.801h-121.1c-24.832,0-44.963-20.13-44.963-44.963v-121.1
			c0-24.832,20.13-44.963,44.963-44.963h121.1c24.832,0,44.963,20.13,44.963,44.963v121.1
			C492,470.671,471.87,490.801,447.037,490.801z"/>
		<path d="M447.037,500.801H325.938c-30.307,0-54.963-24.656-54.963-54.963V324.739c0-30.307,24.656-54.963,54.963-54.963h121.099
			c30.307,0,54.963,24.656,54.963,54.963v121.099C502,476.145,477.344,500.801,447.037,500.801z M325.938,289.776
			c-19.279,0-34.963,15.685-34.963,34.963v121.099c0,19.278,15.684,34.963,34.963,34.963h121.099
			c19.279,0,34.963-15.685,34.963-34.963V324.739c0-19.278-15.684-34.963-34.963-34.963H325.938z"/>
	</g>
</g>
<g>
</g>
<g>
</g>
<g>
</g>
<g>
</g>
<g>
</g>
<g>
</g>
<g>
</g>
<g>
</g>
<g>
</g>
<g>
</g>
<g>
</g>
<g>
</g>
<g>
</g>
<g>
</g>
<g>
</g>
</svg>
