<svg id="Capa_1" enable-background="new 0 0 512 512" height="512" viewBox="0 0 512 512" width="512" xmlns="http://www.w3.org/2000/svg"><g><g><g><g><g><g><g><g><g><path d="m10.755 329.658c-6.996-23.327-10.755-48.054-10.755-73.658 0-141.385 114.615-256 256-256s256 114.615 256 256-114.615 256-256 256c-82.951 0-156.688-39.453-203.468-100.618z" fill="#ff73a5"/></g></g></g></g></g></g></g></g><path d="m344.575 92.446-25.018 77.318-69.557-69.557-47.751 118.996 73.212 73.212-222.826 119.101v.001l47.847 47.847c43.11 33.017 97.023 52.636 155.518 52.636 140.102 0 253.917-112.544 255.971-252.158z" fill="#ff468c"/><g><path d="m371.552 322.883-92.656 57.914-65.348-36.226 72.507-19.471c9.459-4.715 14.256-15.472 11.443-25.663-2.947-10.68-13.344-17.526-24.316-16.012l-92.833 2.652c-12.448.355-24.814 2.139-36.856 5.314l-132.738 38.267c8.987 29.964 23.315 57.619 41.879 81.858 34.72-13.963 66.406-26.35 66.406-26.35l120.379 45.451c21.24 7.944 45.024 4.97 63.654-7.96l112.438-80.217-6.853-11.365c-7.878-12.658-24.629-16.356-37.106-8.192z" fill="#ffdecf"/></g><g><path d="m408.658 331.076c-7.879-12.659-24.629-16.357-37.106-8.193l-92.656 57.914-65.348-36.226 72.507-19.471c9.459-4.715 14.256-15.472 11.443-25.663-2.947-10.68-13.344-17.526-24.316-16.012l-92.833 2.652c-.245.007-.49.023-.735.031v121.927l59.805 22.58c21.24 7.944 45.024 4.97 63.654-7.96l112.438-80.217z" fill="#ffbeaa"/></g><g><g><path d="m150.968 131.436c0-30.064 24.372-54.436 54.436-54.436 22.957 0 42.594 14.191 50.596 34.295 8.002-20.104 27.64-34.295 50.596-34.295 30.064 0 54.436 24.372 54.436 54.436 0 74.464-105.032 124.52-105.032 124.52s-105.032-53.67-105.032-124.52z" fill="#fff"/></g></g><g><g><path d="m256 111.295c8.002-20.104 27.64-34.295 50.596-34.295 30.064 0 54.436 24.372 54.436 54.436 0 74.464-105.032 124.52-105.032 124.52z" fill="#e9edf5"/></g></g></g></svg>