<svg height="512pt" viewBox="-31 0 512 512" width="512pt" xmlns="http://www.w3.org/2000/svg"><path d="m447.902344 322.800781c-2.699219 4.5-7.5 7.199219-12.902344 7.199219h-48.300781l-15.898438 63.300781c-11.402343 45.601563-45 55.199219-85.199219 56.699219h-45.601562v47c0 8.398438-6.597656 15-15 15h-150c-8.402344 0-15-6.601562-15-15v-161.300781c-38.101562-36.601563-60-87.601563-60-140.699219 0-108.601562 88.199219-194.699219 195-195 9 0 18.601562.597656 27.898438 1.800781 92.703124 12.898438 170.101562 96.296875 167.101562 199.199219l58.199219 106.800781c2.402343 4.796875 2.402343 10.199219-.296875 15zm0 0" fill="#fde4e4"/><path d="m447.902344 322.800781c-2.699219 4.5-7.5 7.199219-12.902344 7.199219h-48.300781l-15.898438 63.300781c-11.402343 45.601563-45 55.199219-85.199219 56.699219h-45.601562v47c0 8.398438-6.597656 15-15 15h-30v-512c9 0 18.601562.597656 27.898438 1.800781 92.703124 12.898438 170.101562 96.296875 167.101562 199.199219l58.199219 106.800781c2.402343 4.796875 2.402343 10.199219-.296875 15zm0 0" fill="#fcced3"/><path d="m247.503906 105c-24.300781 0-41.703125 10.5-52.5 20.097656-10.800781-9.597656-28.203125-20.097656-52.5-20.097656-38.402344 0-67.5 28.800781-67.5 66.898438 0 33.300781 23.695313 52.5 48.597656 73.199218 19.5 15.902344 41.699219 34.203125 58.5 62.703125 2.699219 4.5 7.5 7.199219 12.902344 7.199219 5.398438 0 10.199219-2.699219 12.898438-7.199219 16.800781-28.5 39-46.800781 58.5-62.703125 24.902344-20.699218 48.601562-39.898437 48.601562-73.199218 0-38.097657-29.101562-66.898438-67.5-66.898438zm0 0" fill="#ff637b"/><path d="m315.003906 171.898438c0 33.300781-23.699218 52.5-48.601562 73.199218-19.5 15.902344-41.699219 34.203125-58.5 62.703125-2.699219 4.5-7.5 7.199219-12.898438 7.199219v-189.902344c10.796875-9.597656 28.199219-20.097656 52.5-20.097656 38.398438 0 67.5 28.800781 67.5 66.898438zm0 0" fill="#e63950"/></svg>