<svg id="Capa_1" enable-background="new 0 0 512 512" height="512" viewBox="0 0 512 512" width="512" xmlns="http://www.w3.org/2000/svg"><g><g><g><g><g><g><g><g><g><circle cx="256" cy="256" fill="#a3d4ff" r="256"/></g></g></g></g></g></g></g></g><path d="m512 256c0-19.249-2.125-38.002-6.152-56.037l-75.741-75.741-1.026 1.026-22.373-22.373-145.488 41.554-67.43-67.429-6.193 16.011-22.961-22.961-5.838 40.911-22.504-22.504-7.701 43.368-18.956-18.956-4.605 151.639 36.614 36.614-.15.15-72.427 31.16 27.571 27.571-33.223 1.406 21.26 21.26-3.168 4.09 119.271 119.27c17.784 3.91 36.262 5.971 55.22 5.971 141.385 0 256-114.615 256-256z" fill="#65b1fc"/><g><g><path d="m212.992 241.651c0-12.311 9.98-22.29 22.29-22.29 9.4 0 17.441 5.811 20.718 14.043 3.277-8.232 11.318-14.043 20.718-14.043 12.311 0 22.29 9.98 22.29 22.29 0 30.491-43.008 50.988-43.008 50.988s-43.008-21.977-43.008-50.988z" fill="#ff73a5"/></g></g><g><g><path d="m256 233.404c3.277-8.232 11.318-14.043 20.718-14.043 12.311 0 22.29 9.98 22.29 22.29 0 30.491-43.008 50.988-43.008 50.988z" fill="#ff468c"/></g></g><g><g><path d="m412.731 355.537c0-13.6-1.665-26.811-4.803-39.44-23.339 0-112.539 0-135.655 0l-5.669 78.804c24.841 0 117.983 0 141.343-.001 3.126-12.606 4.784-25.791 4.784-39.363z" fill="#ffcdbe"/></g><g><path d="m318.112 353.152c7.178.238 13.053-5.507 13.053-12.612v-37.149c.01-.01.016-.017.026-.028l3.625-.252c16.734-1.163 30.189-13.992 32.618-30.169l7.915-.069c-2.31 19.117-17.2 34.663-36.317 37.649-.009.01-.014.016-.023.026v30.43c0 .304-.008.606-.024.906-.402 7.632-6.683 16.262-14.847 17.511-.021.003-4.94 0-4.94 0v69.997c0 6.638 5.381 12.02 12.019 12.02 6.638 0 12.019-5.381 12.019-12.02v-74.626h4.558v80.492c0 6.517 5.068 12.068 11.581 12.3 6.838.243 12.458-5.228 12.458-12.012v-86.258h3.781v67.208c0 6.249 5.066 11.315 11.315 11.315 6.249 0 11.315-5.066 11.315-11.315v-74.056h3.781v49.888c0 5.382 4.405 9.953 9.786 9.852 5.219-.098 9.419-4.359 9.419-9.601v-121.652c-1.065-12.049-8.249-22.38-18.275-28.02-.008-.005-.014-.014-.014-.023 0 0 0-97.647 0-126.328-12.606-3.125-25.791-4.784-39.363-4.784-13.6 0-26.811 1.665-39.44 4.803v124.674c0 .011-.006.02-.015.024-10.71 4.787-18.196 15.535-18.196 28.004v70.966c0 6.852 5.338 12.682 12.185 12.909z" fill="#faa68e"/></g><g><path d="m359.021 201.277c.238-7.178-5.507-13.053-12.612-13.053h-37.149c-.01-.01-.017-.016-.027-.026l-.252-3.625c-1.163-16.734-13.992-30.189-30.169-32.618l-.069-7.915c19.117 2.31 34.663 17.2 37.649 36.317.01.009.016.014.026.023h30.43c.304 0 .606.008.906.024 7.632.402 16.262 6.683 17.511 14.847.003.021 0 4.94 0 4.94h69.997c6.638 0 12.02-5.381 12.02-12.019 0-6.638-5.381-12.019-12.02-12.019h-74.626v-4.558h80.492c6.517 0 12.068-5.068 12.3-11.581.243-6.838-5.228-12.458-12.012-12.458h-86.258v-3.781h67.208c6.249 0 11.315-5.066 11.315-11.315 0-6.249-5.066-11.315-11.315-11.315h-74.056v-3.781h49.888c5.382 0 9.953-4.404 9.852-9.786-.098-5.219-4.359-9.419-9.601-9.419h-121.653c-12.049 1.065-22.38 8.249-28.02 18.275-.005.008-.014.014-.023.014 0 0-116.209 0-144.89 0-3.125 12.606-4.783 25.791-4.783 39.363 0 13.6 1.665 26.811 4.803 39.44h143.236c.011 0 .02.006.024.015 4.787 10.71 15.535 18.196 28.004 18.196h70.966c6.851 0 12.68-5.337 12.908-12.185z" fill="#e09380"/></g><g><path d="m441.128 171.594c6.517 0 12.068-5.068 12.3-11.581.243-6.838-5.228-12.458-12.011-12.458h-86.258v-3.781h67.208c6.249 0 11.315-5.065 11.315-11.314s-5.066-11.315-11.315-11.315h-74.056v-3.781h49.888c5.382 0 9.953-4.404 9.852-9.786-.098-5.219-4.359-9.419-9.601-9.419h-121.654c-7.969.704-15.176 4.096-20.781 9.206v99.356c5.248 4.209 11.895 6.742 19.131 6.742h70.966c6.852 0 12.682-5.337 12.909-12.185.238-7.178-5.507-13.053-12.612-13.053h-37.149c-.01-.01-.017-.016-.028-.025l-.252-3.625c-1.163-16.734-13.992-30.189-30.169-32.619l-.069-7.915c19.117 2.31 34.663 17.2 37.649 36.317.01.008.016.014.026.022h30.43c.304 0 .606.008.906.023 7.632.402 16.262 6.684 17.511 14.848.003.021 0 4.94 0 4.94h69.997c6.638 0 12.02-5.381 12.02-12.019 0-6.638-5.381-12.019-12.02-12.019h-74.626v-4.559z" fill="#cc6d58"/></g><g><path d="m196.264 158.848c-7.178-.238-13.053 5.507-13.053 12.612v37.149c-.01.01-.016.017-.026.028l-3.625.252c-16.734 1.163-30.189 13.992-32.618 30.169l-7.915.069c2.31-19.117 17.2-34.663 36.317-37.649.009-.01.014-.016.023-.026v-30.43c0-.304.008-.606.024-.906.402-7.632 6.683-16.262 14.847-17.511.021-.003 4.94 0 4.94 0v-69.999c0-6.638-5.381-12.02-12.019-12.02-6.638 0-12.019 5.381-12.019 12.02v74.626h-4.558v-80.491c0-6.517-5.068-12.068-11.581-12.3-6.838-.243-12.458 5.228-12.458 12.012v86.258h-3.781v-67.208c0-6.249-5.066-11.315-11.315-11.315-6.249 0-11.315 5.066-11.315 11.315v74.056h-3.781v-49.888c0-5.382-4.404-9.953-9.786-9.852-5.219.098-9.27 4.359-9.27 9.601v121.653c1.065 12.049 8.099 22.38 18.126 28.02.008.005.014.014.014.023v132.826c12.606 3.125 25.791 4.783 39.363 4.783 13.6 0 26.811-1.665 39.44-4.803 0-28.044 0-131.171 0-131.171 0-.011.006-.02.015-.024 10.71-4.787 18.196-15.535 18.196-28.004v-70.966c0-6.852-5.337-12.682-12.185-12.909z" fill="#d47f6c"/></g><g><path d="m264.883 316.097c-.011 0-.02-.006-.024-.016-4.787-10.71-15.535-18.196-28.004-18.196h-70.966c-6.852 0-12.682 5.337-12.909 12.186-.239 7.178 5.507 13.053 12.612 13.053h37.149c.01.01.017.016.028.026l.252 3.625c1.163 16.734 13.992 30.188 30.169 32.618l.069 7.915c-19.117-2.31-34.663-17.2-37.649-36.317-.01-.009-.016-.014-.026-.023h-30.43c-.304 0-.606-.008-.906-.024-7.632-.402-16.262-6.683-17.511-14.847-.003-.021 0-4.94 0-4.94h-69.999c-6.638 0-12.02 5.381-12.02 12.02 0 6.638 5.381 12.02 12.02 12.02h74.626v4.559h-80.492c-6.517 0-12.068 5.068-12.3 11.581-.243 6.838 5.228 12.458 12.011 12.458h86.259v3.781h-67.208c-6.249 0-11.315 5.066-11.315 11.315 0 6.249 5.066 11.314 11.315 11.314h74.056v3.781h-49.888c-5.382 0-9.953 4.404-9.852 9.786.098 5.219 4.359 9.419 9.6 9.419h121.654c12.049-1.065 22.38-8.249 28.021-18.275.005-.009.014-.014.023-.014h9.026v-78.804c-4.661-.001-7.391-.001-7.391-.001z" fill="#ffeee5"/></g><g><path d="m264.883 316.097c-.011 0-.02-.006-.024-.016-2.004-4.483-5.063-8.39-8.845-11.43v99.308c2.858-2.611 5.307-5.66 7.211-9.044.004-.009.013-.014.023-.014h9.026v-78.804c-4.66 0-7.391 0-7.391 0z" fill="#ffcdbe"/></g></g></g></svg>