<?xml version="1.0" encoding="UTF-8" standalone="no"?>
<svg
   xmlns:dc="http://purl.org/dc/elements/1.1/"
   xmlns:cc="http://creativecommons.org/ns#"
   xmlns:rdf="http://www.w3.org/1999/02/22-rdf-syntax-ns#"
   xmlns:svg="http://www.w3.org/2000/svg"
   xmlns="http://www.w3.org/2000/svg"
   viewBox="0 0 1037.3333 960"
   height="960"
   width="1037.3333"
   xml:space="preserve"
   id="svg2"
   version="1.1"><metadata
     id="metadata8"><rdf:RDF><cc:Work
         rdf:about=""><dc:format>image/svg+xml</dc:format><dc:type
           rdf:resource="http://purl.org/dc/dcmitype/StillImage" /></cc:Work></rdf:RDF></metadata><defs
     id="defs6"><clipPath
       id="clipPath18"
       clipPathUnits="userSpaceOnUse"><path
         id="path16"
         d="M 0,720 H 778 V 0 H 0 Z" /></clipPath></defs><g
     transform="matrix(1.3333333,0,0,-1.3333333,0,960)"
     id="g10"><g
       id="g12"><g
         clip-path="url(#clipPath18)"
         id="g14"><g
           transform="translate(247.3677,501.3477)"
           id="g20"><path
             id="path22"
             style="fill:#da291c;fill-opacity:1;fill-rule:nonzero;stroke:none"
             d="M 0,0 V -43.063 H -83.681 V -60.47 c 0,-22.295 15.576,-31.457 47.338,-31.457 18.019,0 33.594,1.527 47.338,4.276 v -42.452 c -18.325,-3.359 -37.87,-5.191 -58.333,-5.191 -65.967,0 -90.705,26.875 -90.705,76.961 V 85.513 H 10.995 V 42.146 H -83.681 V 0 Z" /></g><g
           transform="translate(294.0923,586.8608)"
           id="g24"><path
             id="path26"
             style="fill:#da291c;fill-opacity:1;fill-rule:nonzero;stroke:none"
             d="m 0,0 h 55.889 l 75.13,-131.019 -2.138,30.846 V 0 h 52.224 V -216.837 H 125.827 L 50.086,-85.819 52.53,-112.083 V -216.837 H 0 Z" /></g><g
           transform="translate(569.8701,546.2417)"
           id="g28"><path
             id="path30"
             style="fill:#da291c;fill-opacity:1;fill-rule:nonzero;stroke:none"
             d="m 0,0 v -67.189 c 4.581,-0.305 12.522,-0.611 23.822,-0.611 25.349,0 37.565,14.049 37.565,35.122 0,21.073 -12.522,34.205 -36.038,34.205 C 17.104,1.527 8.857,0.917 0,0 m 0,-110.556 v -65.662 H -54.057 V 36.649 c 4.277,1.527 14.049,3.054 29.014,4.886 15.271,2.138 31.457,3.054 48.56,3.054 63.218,0 91.926,-26.264 91.926,-77.572 0,-47.643 -30.845,-78.184 -84.902,-78.184 -9.468,0 -19.546,0.305 -30.541,0.611" /></g><g
           transform="translate(214.8501,215.3896)"
           id="g32"><path
             id="path34"
             style="fill:#da291c;fill-opacity:1;fill-rule:nonzero;stroke:none"
             d="m 0,0 v -62.266 c 4.458,-0.139 7.94,-0.278 10.308,-0.278 16.298,0 22.845,10.865 22.845,31.62 0,20.477 -5.711,31.342 -22.984,31.342 C 6.687,0.418 3.204,0.279 0,0 m -24.655,-78.424 v 95.001 c 10.864,2.367 22.148,3.621 33.988,3.621 18.944,0 31.76,-4.875 38.864,-14.347 7.104,-9.333 9.751,-20.617 9.751,-36.635 0,-15.741 -3.065,-27.581 -10.448,-37.054 -7.243,-9.472 -20.058,-14.486 -38.306,-14.486 -5.851,0 -11.562,0.278 -17.273,0.974 -5.572,0.697 -9.751,1.254 -12.398,1.951 z" /></g><g
           transform="translate(282.9712,155.4922)"
           id="g36"><path
             id="path38"
             style="fill:#da291c;fill-opacity:1;fill-rule:nonzero;stroke:none"
             d="m 0,0 c 3.204,-1.812 6.965,-2.786 11.283,-2.786 6.687,0 10.726,3.761 10.726,11.423 V 78.285 H 46.665 V 10.308 c 0,-20.199 -10.169,-32.735 -30.645,-32.735 -8.498,0 -16.298,1.811 -19.084,3.483 l -2.09,1.114 z" /></g><g
           transform="translate(408.7588,194.7734)"
           id="g40"><path
             id="path42"
             style="fill:#da291c;fill-opacity:1;fill-rule:nonzero;stroke:none"
             d="m 0,0 v -19.641 h -38.168 v -7.939 c 0,-10.169 7.105,-14.348 21.592,-14.348 8.219,0 15.322,0.697 21.591,1.95 V -59.34 c -8.358,-1.532 -17.273,-2.368 -26.606,-2.368 -30.089,0 -41.372,12.258 -41.372,35.103 V 39.004 H 5.015 v -19.78 h -43.183 l 0,-19.224 z" /></g><g
           transform="translate(427.5674,233.7773)"
           id="g44"><path
             id="path46"
             style="fill:#da291c;fill-opacity:1;fill-rule:nonzero;stroke:none"
             d="m 0,0 h 72.295 v -20.198 l -43.6,-58.783 h 44.436 v -19.92 H -1.393 v 20.058 L 42.485,-19.92 H 0 Z" /></g><g
           transform="translate(513.5156,233.7773)"
           id="g48"><path
             id="path50"
             style="fill:#da291c;fill-opacity:1;fill-rule:nonzero;stroke:none"
             d="m 0,0 h 72.295 v -20.198 l -43.6,-58.783 h 44.436 v -19.92 H -1.393 v 20.058 L 42.485,-19.92 H 0 Z" /></g><g
           transform="translate(594.1719,233.7773)"
           id="g52"><path
             id="path54"
             style="fill:#da291c;fill-opacity:1;fill-rule:nonzero;stroke:none"
             d="M 0,0 H 26.187 L 43.878,-42.765 62.266,0 H 88.453 L 56.555,-61.849 V -98.901 H 31.898 v 37.052 z" /></g><g
           transform="translate(115.1953,217.7559)"
           id="g56"><path
             id="path58"
             style="fill:#75787c;fill-opacity:1;fill-rule:nonzero;stroke:none"
             d="m 0,0 v -25.325 c 2.415,-0.805 5.015,-1.238 7.926,-1.238 8.173,0 11.145,4.334 11.145,13.994 0,9.659 -3.034,13.931 -11.145,13.931 C 4.953,1.362 2.291,0.929 0,0 m 1.857,-29.722 c -2.043,0.434 -3.653,0.805 -4.706,1.239 l -1.547,0.681 v 45.14 H 0 V 3.777 c 2.848,0.929 5.634,1.424 8.297,1.424 9.969,0 15.17,-5.387 15.17,-17.77 0,-12.385 -5.139,-17.833 -15.356,-17.833 -2.043,0 -4.148,0.247 -6.254,0.68" /></g><g
           transform="translate(145.7183,222.2764)"
           id="g60"><path
             id="path62"
             style="fill:#75787c;fill-opacity:1;fill-rule:nonzero;stroke:none"
             d="m 0,0 h 4.458 v -21.362 c 0,-3.407 0.929,-5.883 2.105,-7.184 2.168,-2.043 4.892,-2.476 7.926,-2.414 3.468,0 6.75,0.557 7.988,0.99 l 0.929,0.31 V 0 h 4.396 v -32.075 c 0,-5.016 -1.115,-8.855 -3.344,-11.579 -2.167,-2.786 -6.006,-4.149 -11.455,-4.149 -3.467,0 -7.059,0.743 -8.545,1.301 l -1.114,0.433 0.866,3.715 c 2.168,-1.052 5.016,-1.61 8.422,-1.61 4.396,0 7.306,1.053 8.792,3.22 1.487,2.044 2.044,4.149 2.106,7.121 C 20.867,-34.428 17.833,-34.8 14.551,-34.8 4.706,-34.8 0,-31.022 0,-21.177 Z" /></g><path
           id="path64"
           style="fill:#75787c;fill-opacity:1;fill-rule:nonzero;stroke:none"
           d="m 109,337.595 h 14.936 V 262.387 H 109 Z" /><g
           transform="translate(139.9277,337.5947)"
           id="g66"><path
             id="path68"
             style="fill:#75787c;fill-opacity:1;fill-rule:nonzero;stroke:none"
             d="m 0,0 h 16.207 l 30.402,-52.01 -0.636,9.004 V 0 H 60.485 V -75.208 H 44.49 l -30.719,52.223 0.741,-7.946 V -75.208 H 0 Z" /></g><g
           transform="translate(266.8237,264.5049)"
           id="g70"><path
             id="path72"
             style="fill:#75787c;fill-opacity:1;fill-rule:nonzero;stroke:none"
             d="m 0,0 c -4.555,-2.224 -10.699,-3.39 -18.538,-3.39 -26.164,0 -34.956,17.479 -34.956,38.876 0,21.398 8.581,38.875 34.85,38.875 7.098,0 13.983,-1.377 16.631,-2.542 L 0,70.973 -3.496,59.426 c -3.283,1.589 -7.733,2.436 -13.346,2.436 -18.22,0 -21.61,-13.346 -21.61,-26.376 0,-13.029 3.39,-26.377 21.61,-26.377 5.084,0 9.957,1.06 11.969,1.908 l 1.377,0.529 z" /></g><g
           transform="translate(278.1533,337.5947)"
           id="g74"><path
             id="path76"
             style="fill:#75787c;fill-opacity:1;fill-rule:nonzero;stroke:none"
             d="m 0,0 h 14.936 v -46.608 c 0,-6.885 1.377,-11.652 4.131,-14.087 2.86,-2.437 6.568,-3.708 11.335,-3.708 4.661,0 8.368,1.271 11.122,3.708 2.86,2.435 4.237,7.202 4.237,14.087 V 0 h 14.936 v -44.383 c 0,-23.305 -9.957,-32.096 -30.295,-32.096 -10.275,0 -17.902,2.436 -22.881,7.203 C 2.542,-64.403 0,-56.142 0,-44.383 Z" /></g><g
           transform="translate(368.6099,296.2832)"
           id="g78"><path
             id="path80"
             style="fill:#75787c;fill-opacity:1;fill-rule:nonzero;stroke:none"
             d="m 0,0 v -22.669 c 2.648,-0.317 6.144,-0.529 10.487,-0.529 11.759,0 16.843,2.648 16.843,11.44 C 27.33,-3.389 22.668,0 11.123,0 Z M 0,30.084 V 10.17 h 10.169 c 10.275,0 14.513,2.754 14.513,10.381 0,8.05 -4.662,10.168 -14.83,10.168 C 6.144,30.719 2.86,30.507 0,30.084 m 10.063,-65.252 c -4.131,0 -8.368,0.212 -12.499,0.636 -4.131,0.424 -7.309,0.847 -9.428,1.27 l -3.072,0.637 v 72.666 c 7.627,1.695 15.89,2.542 24.894,2.542 20.444,0 29.765,-5.825 29.765,-19.809 0,-8.368 -3.601,-13.982 -10.805,-16.629 9.004,-2.861 13.559,-9.323 13.559,-19.386 0,-16.101 -10.275,-21.927 -32.414,-21.927" /></g><g
           transform="translate(451.6543,326.8965)"
           id="g82"><path
             id="path84"
             style="fill:#75787c;fill-opacity:1;fill-rule:nonzero;stroke:none"
             d="M 0,0 -9.64,-33.262 H 9.64 Z m -18.537,-64.51 h -15.571 l 23.939,75.208 H 10.169 L 34.108,-64.51 H 18.644 l -5.616,19.384 h -26.057 z" /></g><g
           transform="translate(543.7021,337.5947)"
           id="g86"><path
             id="path88"
             style="fill:#75787c;fill-opacity:1;fill-rule:nonzero;stroke:none"
             d="m 0,0 v -12.499 h -22.457 v -62.709 h -14.936 v 62.709 h -22.35 V 0 Z" /></g><g
           transform="translate(573.4629,324.9902)"
           id="g90"><path
             id="path92"
             style="fill:#75787c;fill-opacity:1;fill-rule:nonzero;stroke:none"
             d="m 0,0 c -2.118,-1.165 -3.813,-2.543 -4.979,-4.237 -2.223,-3.39 -3.495,-9.216 -3.919,-13.452 -0.318,-4.239 -0.318,-10.382 0,-14.619 0.212,-2.119 0.636,-4.45 1.271,-7.097 1.272,-5.085 3.391,-8.263 7.627,-10.699 4.343,-2.225 11.335,-2.225 15.678,0 2.224,1.165 3.813,2.648 4.978,4.342 2.437,3.391 3.602,9.322 3.92,13.454 0.423,4.237 0.423,10.38 0,14.511 -0.106,2.119 -0.53,4.45 -1.165,7.098 C 22.14,-5.508 20.021,-2.225 15.678,0 11.335,2.437 4.343,2.437 0,0 m 39.935,-24.999 c 0,-25.953 -10.699,-38.876 -32.096,-38.876 -11.97,0 -20.656,4.132 -25.423,11.334 -4.661,7.31 -6.567,16.101 -6.567,27.542 0,11.44 1.906,20.231 6.567,27.436 4.767,7.308 13.453,11.439 25.423,11.439 21.397,0 32.096,-12.923 32.096,-38.875" /></g><g
           transform="translate(651.8447,326.79)"
           id="g94"><path
             id="path96"
             style="fill:#75787c;fill-opacity:1;fill-rule:nonzero;stroke:none"
             d="m 0,0 c -2.648,0 -6.25,-0.211 -10.593,-0.635 v -23.198 c 2.118,-0.106 5.191,-0.212 9.322,-0.212 12.393,0 17.372,2.966 17.372,11.864 C 16.101,-2.965 10.91,0 0,0 M -25.528,-64.403 V 9.64 c 8.473,1.589 16.842,2.436 24.999,2.436 21.608,0 31.565,-7.097 31.565,-23.727 0,-11.441 -5.084,-18.644 -15.253,-21.61 l 6.673,-12.605 c 2.648,-5.403 4.555,-7.415 8.368,-7.415 l 2.331,0.317 v -10.91 c -1.483,-0.954 -3.708,-1.377 -6.779,-1.377 -8.474,0 -12.712,4.448 -17.267,13.347 l -8.473,16.631 h -2.013 c -2.226,0 -5.297,0.106 -9.216,0.211 v -29.341 z" /></g></g></g></g></svg>