<svg viewBox="323 327 557 61" version="1.1" xmlns="http://www.w3.org/2000/svg" xmlns:xlink="http://www.w3.org/1999/xlink">
    <title>GitHub Education</title>
    <path d="M601.020618,353.998525 L575.844102,353.998525 L575.844102,333.902811 L603.674769,333.902811 L603.674769,329.12534 L570.687466,329.12534 L570.687466,386 L603.674769,386 L603.674769,381.222529 L575.844102,381.222529 L575.844102,358.775996 L601.020618,358.775996 L601.020618,353.998525 Z M627.922191,347.325231 C615.713097,347.325231 612.37645,356.121845 612.37645,367.04178 C612.37645,377.961715 615.713097,386.758329 627.922191,386.758329 C632.017166,386.758329 635.80881,385.393337 639.75212,382.890852 L640.889613,386 L643.847096,386 L643.847096,329.12534 L638.538794,329.12534 L638.538794,350.434379 C635.27798,348.311058 631.410503,347.325231 627.922191,347.325231 L627.922191,347.325231 Z M627.922191,352.02687 C632.851328,352.02687 635.581312,352.861031 638.538794,354.453522 L638.538794,379.630038 C635.581312,381.222529 632.851328,382.05669 627.922191,382.05669 C618.822245,382.05669 617.684752,374.549235 617.684752,367.04178 C617.684752,359.534325 618.822245,352.02687 627.922191,352.02687 L627.922191,352.02687 Z M658.615407,348.08356 L653.307106,348.08356 L653.307106,375.383397 C653.307106,382.663353 657.174582,386.758329 666.198695,386.758329 C670.217838,386.758329 674.085315,385.46917 677.64946,382.815019 L678.786953,386 L681.744436,386 L681.744436,348.08356 L676.436134,348.08356 L676.436134,379.630038 C673.630318,381.222529 671.127832,382.05669 666.198695,382.05669 C661.497057,382.05669 658.615407,380.540033 658.615407,375.610895 L658.615407,348.08356 Z M690.825281,367.04178 C690.825281,377.961715 694.010262,386.758329 706.826019,386.758329 C710.54183,386.758329 714.788472,386.303332 718.125118,384.862507 L718.125118,380.312534 C715.167636,381.298361 712.134321,382.05669 706.750186,382.05669 C697.195243,382.05669 696.133583,374.549235 696.133583,367.04178 C696.133583,359.534325 697.195243,352.02687 706.750186,352.02687 C712.134321,352.02687 715.167636,352.785198 718.125118,353.771026 L718.125118,349.221053 C714.788472,347.780228 710.54183,347.325231 706.826019,347.325231 C694.010262,347.325231 690.825281,356.121845 690.825281,367.04178 L690.825281,367.04178 Z M748.818335,359.989322 L748.818335,362.112643 L738.808395,362.719306 C728.874287,363.325969 725.310142,368.10344 725.310142,374.549235 C725.310142,380.919197 728.646789,386.758329 738.580896,386.758329 C742.37254,386.758329 746.619181,385.46917 750.031661,382.966685 L751.169154,386 L754.126636,386 L754.126636,360.065155 C754.126636,352.481867 751.169154,347.325231 739.794222,347.325231 C736.154244,347.325231 731.755937,347.931894 728.41929,349.372719 L728.41929,353.922692 C731.376772,352.936864 734.713419,352.02687 739.794222,352.02687 C746.84668,352.02687 748.818335,354.453522 748.818335,359.989322 L748.818335,359.989322 Z M748.818335,365.828454 L748.818335,379.023375 C745.557521,380.919197 742.827537,382.05669 738.732562,382.05669 C731.528438,382.05669 730.694276,377.961715 730.694276,374.549235 C730.694276,370.150928 733.045096,367.345111 738.42923,366.814281 L748.818335,365.828454 Z M783.68236,382.208356 C782.696532,382.284189 781.710705,382.360022 780.724877,382.360022 C775.947406,382.360022 773.444921,380.4642 773.444921,375.838394 L773.444921,352.254368 L785.199017,352.254368 L785.199017,348.08356 L773.444921,348.08356 L773.444921,335.950299 L768.136619,337.466957 L768.136619,347.704395 L760.553331,349.903549 L760.553331,352.254368 L768.136619,352.254368 L768.136619,376.445057 C768.136619,383.876679 773.975751,386.758329 780.26988,386.758329 C781.255708,386.758329 782.772365,386.682496 783.68236,386.454997 L783.68236,382.208356 Z M801.938984,386.758329 L801.938984,382.435855 C799.588165,382.435855 798.754003,381.677526 798.754003,379.023375 L798.754003,348.08356 L793.597367,348.08356 L793.597367,378.416712 C793.597367,384.483342 796.479017,386.758329 801.938984,386.758329 L801.938984,386.758329 Z M792.384041,336.708628 C792.384041,338.831948 794.052364,340.500272 796.175685,340.500272 C798.299006,340.500272 799.967329,338.831948 799.967329,336.708628 C799.967329,334.585307 798.299006,332.916984 796.175685,332.916984 C794.052364,332.916984 792.384041,334.585307 792.384041,336.708628 L792.384041,336.708628 Z M841.656313,367.04178 C841.656313,355.439349 838.774664,347.325231 825.731408,347.325231 C812.763986,347.325231 809.806503,355.439349 809.806503,367.04178 C809.806503,378.644211 812.763986,386.758329 825.731408,386.758329 C838.774664,386.758329 841.656313,378.644211 841.656313,367.04178 L841.656313,367.04178 Z M836.348012,367.04178 C836.348012,375.610895 835.589683,382.05669 825.731408,382.05669 C815.721468,382.05669 815.114805,375.610895 815.114805,367.04178 C815.114805,358.472664 815.721468,352.02687 825.731408,352.02687 C835.589683,352.02687 836.348012,358.472664 836.348012,367.04178 L836.348012,367.04178 Z M873.866187,386 L879.174489,386 L879.174489,358.700163 C879.174489,351.420207 875.307012,347.325231 866.282899,347.325231 C862.263757,347.325231 858.39628,348.61439 854.832134,351.268541 L853.694641,348.08356 L850.737159,348.08356 L850.737159,386 L856.04546,386 L856.04546,354.453522 C858.851277,352.861031 861.353762,352.02687 866.282899,352.02687 C870.984538,352.02687 873.866187,353.543527 873.866187,358.472664 L873.866187,386 Z" id="Education" stroke="none" fill="#333333" fill-rule="evenodd"></path>
    <path d="M386.551515,337.815571 C386.551515,334.046224 383.518902,331 379.775758,331 C376.036423,331 373,334.046224 373,337.815571 C373,341.58302 376.036423,344.638735 379.775758,344.638735 C383.518902,344.638735 386.551515,341.58302 386.551515,337.815571" id="Fill-4" stroke="none" fill="#333333" fill-rule="evenodd"></path>
    <path id="Fill-1" stroke="none" fill="#000000" fill-rule="evenodd"></path>
    <path d="M366.46619,352.813714 L347.803807,352.813714 C347.321865,352.813714 346.931359,353.202796 346.931359,353.68298 L346.931359,362.774204 C346.931359,363.25249 347.321865,363.643469 347.803807,363.643469 L355.084365,363.643469 L355.084365,374.940122 C355.084365,374.940122 353.448049,375.494327 348.929607,375.494327 C343.59777,375.494327 336.14958,373.552714 336.14958,357.234061 C336.14958,340.909714 343.906365,338.76502 351.186923,338.76502 C357.488359,338.76502 360.204758,339.869633 361.934414,340.401061 C362.477313,340.568082 362.978304,340.029061 362.978304,339.548878 L365.062273,330.765122 C365.062273,330.541163 364.984172,330.269755 364.727009,330.085653 C364.026003,329.588388 359.74377,327.200755 348.929607,327.200755 C336.469604,327.200755 323.689577,332.480878 323.689577,357.869878 C323.689577,383.270265 338.32308,387.051 350.653549,387.051 C360.863856,387.051 367.054807,382.706571 367.054807,382.706571 C367.310064,382.566122 367.338638,382.209306 367.338638,382.049878 L367.338638,353.68298 C367.338638,353.202796 366.948132,352.813714 366.46619,352.813714" id="Fill-2" stroke="none" fill="#333333" fill-rule="evenodd"></path>
    <path d="M462.542129,329.368224 L452.034656,329.368224 C451.55462,329.368224 451.166018,329.759204 451.166018,330.241286 C451.166018,330.243184 451.167923,350.475429 451.167923,350.475429 L434.789525,350.475429 L434.789525,330.241286 C434.789525,329.759204 434.400923,329.368224 433.920887,329.368224 L423.413414,329.368224 C422.935282,329.368224 422.544776,329.759204 422.544776,330.241286 L422.544776,385.041061 C422.544776,385.523143 422.935282,385.91602 423.413414,385.91602 L433.920887,385.91602 C434.400923,385.91602 434.789525,385.523143 434.789525,385.041061 L434.789525,361.595571 L451.167923,361.595571 C451.167923,361.595571 451.13935,385.037265 451.13935,385.041061 C451.13935,385.523143 451.527951,385.91602 452.007988,385.91602 L462.542129,385.91602 C463.024071,385.91602 463.408862,385.523143 463.410767,385.041061 L463.410767,330.241286 C463.410767,329.759204 463.025975,329.368224 462.542129,329.368224 Z" id="Fill-3" stroke="none" fill="#333333" fill-rule="evenodd"></path>
    <path d="M385.92673,373.473 L385.92673,348.182694 C385.92673,347.70251 385.538129,347.309633 385.056187,347.309633 L374.581098,347.309633 C374.101061,347.309633 373.670552,347.803102 373.670552,348.285184 L373.670552,384.526714 C373.670552,385.589571 374.33727,385.904633 375.198288,385.904633 L384.637107,385.904633 C385.671472,385.904633 385.92673,385.401673 385.92673,384.507735 L385.92673,373.473" id="Fill-5" stroke="none" fill="#333333" fill-rule="evenodd"></path>
    <path d="M504.189132,347.391245 L493.763571,347.391245 C493.283534,347.391245 492.894933,347.784122 492.894933,348.268102 L492.894933,375.131816 C492.894933,375.131816 490.245206,377.062041 486.484917,377.062041 C482.724629,377.062041 481.728362,375.363367 481.728362,371.692714 L481.728362,348.268102 C481.728362,347.784122 481.339761,347.391245 480.859724,347.391245 L470.27796,347.391245 C469.799828,347.391245 469.409322,347.784122 469.409322,348.268102 L469.409322,373.469204 C469.409322,384.374878 475.503123,387.039612 483.886623,387.039612 C490.76334,387.039612 496.310433,383.255082 496.310433,383.255082 C496.310433,383.255082 496.575215,385.249837 496.693319,385.487082 C496.813328,385.724327 497.125733,385.957776 497.460997,385.957776 L504.194847,385.927408 C504.672979,385.927408 505.063485,385.538327 505.063485,385.056245 L505.059675,348.268102 C505.059675,347.784122 504.671074,347.391245 504.189132,347.391245" id="Fill-6" stroke="none" fill="#333333" fill-rule="evenodd"></path>
    <path d="M533.261837,346.163265 C527.339479,346.163265 523.312503,348.793837 523.312503,348.793837 L523.312503,330.241286 C523.312503,329.759204 522.923902,329.368224 522.44577,329.368224 L511.907819,329.368224 C511.427782,329.368224 511.039181,329.759204 511.039181,330.241286 L511.039181,385.041061 C511.039181,385.523143 511.427782,385.91602 511.907819,385.91602 L519.218856,385.91602 C519.548405,385.91602 519.797948,385.747102 519.982724,385.449122 C520.16369,385.156837 520.424663,382.924837 520.424663,382.924837 C520.424663,382.924837 524.735469,386.992163 532.892285,386.992163 C542.470163,386.992163 547.960107,382.150469 547.960107,365.256735 C547.960107,348.368694 539.189911,346.163265 533.261837,346.163265 L533.261837,346.163265 Z M529.151046,377.031673 C525.533626,376.919694 523.080104,375.285551 523.080104,375.285551 L523.080104,357.936306 C523.080104,357.936306 525.499337,356.455898 528.469089,356.19398 C532.225567,355.858041 535.842988,356.989224 535.842988,365.913429 C535.842988,375.325408 534.210482,377.181612 529.151046,377.031673 L529.151046,377.031673 Z" id="Fill-7" stroke="none" fill="#333333" fill-rule="evenodd"></path>
    <path d="M415.93665,347.305837 L408.054141,347.305837 C408.054141,347.305837 408.042712,336.931592 408.042712,336.929694 C408.042712,336.536816 407.840791,336.339429 407.383613,336.339429 L396.641837,336.339429 C396.224663,336.339429 395.999883,336.523531 395.999883,336.924 L395.999883,347.643673 C395.999883,347.643673 390.618518,348.938082 390.252776,349.044367 C389.890844,349.148755 389.624156,349.482796 389.624156,349.879469 L389.624156,356.617224 C389.624156,357.101204 390.012758,357.492184 390.492794,357.492184 L395.999883,357.492184 L395.999883,373.700755 C395.999883,385.749 404.474819,386.931429 410.195258,386.931429 C412.808791,386.931429 415.934745,386.094429 416.450975,385.904633 C416.76338,385.794551 416.944347,385.471898 416.944347,385.118878 L416.953871,377.699755 C416.953871,377.215776 416.544316,376.822898 416.081423,376.822898 C415.624245,376.822898 414.447012,377.012694 413.239301,377.012694 C409.364718,377.012694 408.054141,375.219122 408.054141,372.89602 C408.054141,370.576714 408.052236,357.492184 408.052236,357.492184 L415.93665,357.492184 C416.416687,357.492184 416.805288,357.101204 416.805288,356.617224 L416.805288,348.178898 C416.805288,347.694918 416.416687,347.305837 415.93665,347.305837" id="Fill-8" stroke="none" fill="#333333" fill-rule="evenodd"></path>
  </svg>
